<svg width="129" height="164" viewBox="0 0 129 164" fill="none" xmlns="http://www.w3.org/2000/svg">
<g filter="url(#filter0_d_130_5256)">
<g clip-path="url(#clip0_130_5256)">
<rect x="11.476" y="2.86914" width="105.559" height="140.612" rx="4.83478" fill="#F6F6F6" style="fill:#F6F6F6;fill:color(display-p3 0.9634 0.9634 0.9634);fill-opacity:1;"/>
<path d="M19.4834 15.7909C18.734 15.7909 18.1055 15.4283 18.0861 14.6451L18.7098 14.5774C18.7195 15.0609 19.0386 15.3074 19.4931 15.3074C19.9088 15.3074 20.2279 15.1527 20.2279 14.7805C20.2279 14.384 19.7976 14.3792 19.3093 14.268C18.7195 14.1278 18.1828 13.9102 18.1828 13.2672C18.1828 12.5613 18.8307 12.2905 19.4157 12.2905C20.1216 12.2905 20.6534 12.5661 20.7356 13.3445L20.1216 13.4509C20.1022 12.9819 19.8363 12.7692 19.4157 12.7692C19.0724 12.7692 18.792 12.9239 18.792 13.2333C18.792 13.5428 19.1595 13.6443 19.6043 13.7265C20.2811 13.8522 20.842 14.0262 20.842 14.7466C20.842 15.5105 20.2086 15.7909 19.4834 15.7909ZM21.6627 15.7329L21.0681 13.3155H21.6337L21.8706 14.5919L21.977 15.2494H21.9915C22.035 15.0415 22.093 14.7273 22.122 14.5919L22.3783 13.4799H22.9391L23.1857 14.5919C23.2195 14.7466 23.2679 15.0174 23.3066 15.2494H23.3211C23.3694 14.9593 23.3888 14.8772 23.4323 14.5919L23.6692 13.3155H24.2348L23.645 15.7329H23.0116L22.7747 14.6886C22.7457 14.5581 22.6974 14.2873 22.6587 14.0456H22.6442C22.6055 14.2728 22.5668 14.5242 22.5282 14.6886L22.2913 15.7329H21.6627ZM25.408 15.7909C24.9632 15.7909 24.5715 15.554 24.5715 15.0657C24.5715 14.5484 25.0018 14.4033 25.4418 14.3212L26.1622 14.1858C26.1622 14.0262 26.1622 13.9102 26.0945 13.8135C26.0268 13.7216 25.9059 13.6781 25.7077 13.6781C25.3741 13.6781 25.2194 13.7942 25.2146 14.1326L24.6537 14.0601C24.6682 13.7748 24.7746 13.5718 24.9583 13.4461C25.1372 13.3204 25.4031 13.2575 25.7416 13.2575C26.3652 13.2575 26.7182 13.5283 26.7182 14.0552V15.2978C26.7182 15.4573 26.752 15.5975 26.8004 15.7136V15.7329H26.225C26.2057 15.641 26.1912 15.5395 26.1912 15.3896C26.0655 15.6265 25.8044 15.7909 25.408 15.7909ZM25.1565 15.0609C25.1565 15.2688 25.3209 15.3703 25.5288 15.3703C25.9398 15.3703 26.1622 15.1624 26.1622 14.8046V14.5774L25.5337 14.7128C25.3113 14.766 25.1565 14.8385 25.1565 15.0609ZM27.4247 16.6999V13.3155H27.9952V13.6443C28.1596 13.388 28.4303 13.2575 28.7301 13.2575C29.3489 13.2575 29.8082 13.7361 29.8082 14.5242C29.8082 15.2881 29.3682 15.7909 28.7446 15.7909C28.44 15.7909 28.1789 15.6749 27.9952 15.4283V16.6999H27.4247ZM27.9807 14.5145C27.9807 15.0029 28.1015 15.3655 28.5705 15.3655C28.7687 15.3655 28.9138 15.3123 29.0056 15.2059C29.1362 15.0705 29.1845 14.8336 29.1845 14.5194C29.1845 13.9634 29.0443 13.6781 28.585 13.6781C28.3916 13.6781 28.2466 13.741 28.145 13.8667C28.0338 14.0069 27.9807 14.2293 27.9807 14.5145Z" fill="#093C52" style="fill:#093C52;fill:color(display-p3 0.0350 0.2339 0.3215);fill-opacity:1;"/>
<rect x="15.1021" y="71.7646" width="98.3072" height="68.0898" rx="2.41739" fill="#E5E5E5" style="fill:#E5E5E5;fill:color(display-p3 0.8980 0.8980 0.8980);fill-opacity:1;"/>
<rect x="17.9224" y="119.307" width="92.6666" height="17.7275" rx="1.61159" fill="#093C52" style="fill:#093C52;fill:color(display-p3 0.0350 0.2339 0.3215);fill-opacity:1;"/>
<path d="M57.226 131.642C55.977 131.642 54.9295 131.037 54.8973 129.732L55.9368 129.619C55.9529 130.425 56.4847 130.836 57.2421 130.836C57.9351 130.836 58.467 130.578 58.467 129.958C58.467 129.297 57.7498 129.289 56.9359 129.103C55.9529 128.87 55.0584 128.507 55.0584 127.435C55.0584 126.259 56.1382 125.808 57.1132 125.808C58.2897 125.808 59.1761 126.267 59.313 127.564L58.2897 127.742C58.2574 126.96 57.8143 126.605 57.1132 126.605C56.5411 126.605 56.0737 126.863 56.0737 127.379C56.0737 127.895 56.6861 128.064 57.4275 128.201C58.5556 128.41 59.4903 128.7 59.4903 129.901C59.4903 131.174 58.4347 131.642 57.226 131.642ZM60.8583 131.545L59.8672 127.516H60.8099L61.2048 129.643L61.3821 130.739H61.4062C61.4787 130.393 61.5754 129.869 61.6238 129.643L62.0509 127.79H62.9856L63.3965 129.643C63.4529 129.901 63.5335 130.352 63.598 130.739H63.6222C63.7027 130.256 63.735 130.119 63.8075 129.643L64.2023 127.516H65.1451L64.162 131.545H63.1065L62.7116 129.804C62.6633 129.587 62.5827 129.136 62.5182 128.733H62.494C62.4296 129.111 62.3651 129.53 62.3007 129.804L61.9058 131.545H60.8583ZM67.1003 131.642C66.359 131.642 65.7063 131.247 65.7063 130.433C65.7063 129.571 66.4234 129.329 67.1567 129.192L68.3574 128.966C68.3574 128.7 68.3574 128.507 68.2445 128.346C68.1317 128.193 67.9303 128.12 67.5999 128.12C67.0439 128.12 66.7861 128.314 66.778 128.878L65.8433 128.757C65.8674 128.281 66.0447 127.943 66.3509 127.734C66.6491 127.524 67.0923 127.419 67.6563 127.419C68.6958 127.419 69.284 127.87 69.284 128.749V130.82C69.284 131.086 69.3404 131.319 69.421 131.513V131.545H68.4621C68.4299 131.392 68.4057 131.223 68.4057 130.973C68.1962 131.368 67.7611 131.642 67.1003 131.642ZM66.6813 130.425C66.6813 130.771 66.9553 130.941 67.3018 130.941C67.9867 130.941 68.3574 130.594 68.3574 129.998V129.619L67.3098 129.845C66.9392 129.933 66.6813 130.054 66.6813 130.425ZM70.4615 133.157V127.516H71.4123V128.064C71.6863 127.637 72.1375 127.419 72.6371 127.419C73.6686 127.419 74.4341 128.217 74.4341 129.53C74.4341 130.804 73.7008 131.642 72.6613 131.642C72.1537 131.642 71.7185 131.448 71.4123 131.037V133.157H70.4615ZM71.3882 129.514C71.3882 130.328 71.5896 130.933 72.3712 130.933C72.7016 130.933 72.9433 130.844 73.0964 130.667C73.314 130.441 73.3946 130.046 73.3946 129.522C73.3946 128.596 73.1609 128.12 72.3954 128.12C72.0731 128.12 71.8313 128.225 71.6621 128.435C71.4768 128.668 71.3882 129.039 71.3882 129.514Z" fill="#E5E5E5" style="fill:#E5E5E5;fill:color(display-p3 0.8980 0.8980 0.8980);fill-opacity:1;"/>
<path d="M40.2101 42.4305C38.276 42.4305 37.2403 41.2575 37.2153 39.6353L38.7127 39.4107C38.7002 40.5213 39.2368 41.2076 40.2101 41.2076C41.146 41.2076 41.7075 40.721 41.7075 39.7976C41.7075 38.7868 40.9838 38.4624 40.2725 38.4624H39.4739V37.1646H40.1228C40.7218 37.1646 41.3956 36.8651 41.3956 35.9916C41.3956 35.2679 40.9838 34.7937 40.1977 34.7937C39.0746 34.7937 38.8375 35.7171 38.8625 36.3909L37.3276 36.1663C37.4025 34.5816 38.5505 33.5833 40.1977 33.5833C41.7075 33.5833 42.9055 34.3944 42.9055 35.9667C42.9055 36.7154 42.5062 37.3393 41.8448 37.6887C42.7682 38.0007 43.2424 38.8492 43.2424 39.7851C43.2424 41.5321 41.9571 42.4305 40.2101 42.4305ZM45.7118 43.4288C46.1859 43.304 46.4729 42.9296 46.4854 42.2808H45.6868V40.4464H47.4463V42.2932C47.4463 43.3789 46.735 44.1151 45.7118 44.2898V43.4288ZM52.8835 42.4305C50.9494 42.4305 49.9137 41.2575 49.8887 39.6353L51.3861 39.4107C51.3737 40.5213 51.9102 41.2076 52.8835 41.2076C53.8194 41.2076 54.381 40.721 54.381 39.7976C54.381 38.7868 53.6572 38.4624 52.9459 38.4624H52.1473V37.1646H52.7962C53.3952 37.1646 54.069 36.8651 54.069 35.9916C54.069 35.2679 53.6572 34.7937 52.8711 34.7937C51.748 34.7937 51.5109 35.7171 51.5359 36.3909L50.001 36.1663C50.0759 34.5816 51.2239 33.5833 52.8711 33.5833C54.381 33.5833 55.5789 34.3944 55.5789 35.9667C55.5789 36.7154 55.1796 37.3393 54.5182 37.6887C55.4416 38.0007 55.9158 38.8492 55.9158 39.7851C55.9158 41.5321 54.6305 42.4305 52.8835 42.4305ZM60.2195 42.4305C58.2853 42.4305 57.2496 41.2575 57.2247 39.6353L58.7221 39.4107C58.7096 40.5213 59.2462 41.2076 60.2195 41.2076C61.1554 41.2076 61.7169 40.721 61.7169 39.7976C61.7169 38.7868 60.9932 38.4624 60.2819 38.4624H59.4833V37.1646H60.1321C60.7311 37.1646 61.4049 36.8651 61.4049 35.9916C61.4049 35.2679 60.9932 34.7937 60.207 34.7937C59.084 34.7937 58.8469 35.7171 58.8718 36.3909L57.337 36.1663C57.4118 34.5816 58.5599 33.5833 60.207 33.5833C61.7169 33.5833 62.9148 34.3944 62.9148 35.9667C62.9148 36.7154 62.5155 37.3393 61.8542 37.6887C62.7776 38.0007 63.2518 38.8492 63.2518 39.7851C63.2518 41.5321 61.9665 42.4305 60.2195 42.4305ZM67.5555 42.4305C65.6213 42.4305 64.5856 41.2575 64.5606 39.6353L66.058 39.4107C66.0456 40.5213 66.5821 41.2076 67.5555 41.2076C68.4913 41.2076 69.0529 40.721 69.0529 39.7976C69.0529 38.7868 68.3291 38.4624 67.6178 38.4624H66.8192V37.1646H67.4681C68.0671 37.1646 68.7409 36.8651 68.7409 35.9916C68.7409 35.2679 68.3291 34.7937 67.543 34.7937C66.4199 34.7937 66.1828 35.7171 66.2078 36.3909L64.6729 36.1663C64.7478 34.5816 65.8958 33.5833 67.543 33.5833C69.0529 33.5833 70.2508 34.3944 70.2508 35.9667C70.2508 36.7154 69.8515 37.3393 69.1901 37.6887C70.1135 38.0007 70.5877 38.8492 70.5877 39.7851C70.5877 41.5321 69.3024 42.4305 67.5555 42.4305ZM73.0196 42.2808V40.4963H74.7791V42.2808H73.0196ZM80.1171 42.4305C78.4326 42.4305 77.2346 41.4197 77.1972 39.7102L78.6821 39.4731C78.6821 40.5962 79.2811 41.2076 80.1421 41.2076C81.2028 41.2076 81.7269 40.5837 81.7269 39.4731C81.7269 38.4249 81.0905 37.9258 80.1546 37.9258C79.5431 37.9258 79.069 38.1379 78.7445 38.5622L77.4093 38.3376L78.0707 33.733H82.775V35.0058H79.306L78.9941 37.2145C79.356 36.8526 79.8676 36.653 80.5165 36.653C81.8766 36.653 83.2118 37.514 83.2118 39.523C83.2118 41.1452 82.1761 42.4305 80.1171 42.4305ZM87.6536 42.4305C85.5448 42.4305 84.4342 40.9206 84.4342 38.0007C84.4342 35.4051 85.4699 33.5833 87.6536 33.5833C89.8498 33.5833 90.898 35.4176 90.898 38.0007C90.898 40.6211 89.8498 42.4305 87.6536 42.4305ZM86.0189 38.0007C86.0189 38.7119 86.0564 39.3109 86.1562 39.7851L88.4522 35.0183C88.2401 34.8935 87.9781 34.8311 87.6536 34.8311C87.0671 34.8311 86.6803 35.0433 86.4307 35.4675C86.1063 35.9792 86.0189 36.8277 86.0189 38.0007ZM86.7926 40.9705C87.0172 41.1327 87.2917 41.2076 87.6536 41.2076C88.1652 41.2076 88.5271 41.0454 88.7767 40.721C89.1885 40.2093 89.3008 39.2859 89.3008 38.0007C89.3008 37.227 89.2633 36.5906 89.1386 36.1039L86.7926 40.9705Z" fill="#093C52" style="fill:#093C52;fill:color(display-p3 0.0350 0.2339 0.3215);fill-opacity:1;"/>
<rect x="47.5426" y="46.6982" width="33.0228" height="12.6625" rx="6.33126" fill="#E5E5E5" style="fill:#E5E5E5;fill:color(display-p3 0.8980 0.8980 0.8980);fill-opacity:1;"/>
<circle cx="53.8741" cy="53.0296" r="3.45341" fill="#093C52" style="fill:#093C52;fill:color(display-p3 0.0350 0.2339 0.3215);fill-opacity:1;"/>
<path d="M61.0607 54.5712C60.4494 54.5712 60.1386 54.2846 60.1386 53.7459V52.1124H60.5703V53.7286C60.5703 54.0601 60.7671 54.2121 61.0607 54.2121C61.3577 54.2121 61.558 54.0601 61.558 53.7286V52.1124H61.9897V53.7459C61.9897 54.2777 61.6754 54.5712 61.0607 54.5712ZM63.323 54.5712C62.7877 54.5712 62.3387 54.3122 62.3249 53.7528L62.7704 53.7044C62.7773 54.0498 63.0053 54.2259 63.3299 54.2259C63.6269 54.2259 63.8548 54.1154 63.8548 53.8495C63.8548 53.5663 63.5474 53.5628 63.1986 53.4834C62.7773 53.3833 62.394 53.2278 62.394 52.7685C62.394 52.2643 62.8568 52.071 63.2746 52.071C63.7788 52.071 64.1587 52.2678 64.2174 52.8238L63.7788 52.8998C63.765 52.5648 63.5751 52.4128 63.2746 52.4128C63.0294 52.4128 62.8291 52.5234 62.8291 52.7444C62.8291 52.9654 63.0916 53.0379 63.4093 53.0966C63.8928 53.1864 64.2934 53.3107 64.2934 53.8253C64.2934 54.3709 63.841 54.5712 63.323 54.5712ZM64.6655 54.5298V52.1124H65.4598C66.1885 52.1124 66.5684 52.5924 66.5684 53.3211C66.5684 54.0808 66.1678 54.5298 65.4598 54.5298H64.6655ZM65.0938 54.181H65.4356C65.6774 54.181 65.8535 54.1085 65.9537 53.9703C66.0711 53.8115 66.1091 53.6008 66.1091 53.3211C66.1091 53.0345 66.0745 52.8307 65.964 52.6718C65.8639 52.5199 65.6774 52.4612 65.4356 52.4612H65.0938V54.181ZM67.9155 54.5712C67.2455 54.5712 66.838 54.1465 66.838 53.3211C66.838 52.5648 67.2386 52.071 67.9155 52.071C68.3955 52.071 68.765 52.33 68.8894 52.8238L68.4508 52.9101C68.3921 52.6097 68.2228 52.4197 67.9189 52.4197C67.7152 52.4197 67.5598 52.475 67.4562 52.6166C67.3422 52.7685 67.2973 53.0034 67.2973 53.3211C67.2973 53.6423 67.3422 53.8633 67.4493 54.0118C67.5494 54.1534 67.7014 54.2224 67.9155 54.2224C68.2125 54.2224 68.3783 54.0359 68.4577 53.77L68.9032 53.8875C68.734 54.3122 68.4024 54.5712 67.9155 54.5712Z" fill="#093C52" style="fill:#093C52;fill:color(display-p3 0.0350 0.2339 0.3215);fill-opacity:1;"/>
<path d="M72.5076 51.7344L75.0976 54.3244L77.6877 51.7344" stroke="#093C52" style="stroke:#093C52;stroke:color(display-p3 0.0350 0.2339 0.3215);stroke-opacity:1;" stroke-width="0.575569"/>
<rect x="57.9893" y="66.0615" width="12.1294" height="11.578" rx="1.654" fill="#E5E5E5" stroke="#F6F6F6" style="fill:#E5E5E5;fill:color(display-p3 0.8980 0.8980 0.8980);fill-opacity:1;stroke:#F6F6F6;stroke:color(display-p3 0.9634 0.9634 0.9634);stroke-opacity:1;" stroke-width="1.10267"/>
<path d="M66.5349 71.0234L64.0539 68.5424L61.5729 71.0234" stroke="#093C52" style="stroke:#093C52;stroke:color(display-p3 0.0350 0.2339 0.3215);stroke-opacity:1;" stroke-width="0.551335"/>
<path d="M61.5729 72.6777L64.0539 75.1587L66.5349 72.6777" stroke="#093C52" style="stroke:#093C52;stroke:color(display-p3 0.0350 0.2339 0.3215);stroke-opacity:1;" stroke-width="0.551335"/>
<path d="M48.3384 94.3528V93.0925H49.4365V88.1386C49.0621 88.5254 48.4008 88.6751 47.702 88.6751C47.5772 88.6751 47.4524 88.6626 47.3401 88.6502V87.3649C48.7127 87.3649 49.4614 86.8782 49.6611 85.7926H50.9089V93.0925H51.8822V94.3528H48.3384ZM54.5776 94.3403V92.5559H56.337V94.3403H54.5776ZM61.9122 94.4901C59.8033 94.4901 58.6927 92.9802 58.6927 90.0602C58.6927 87.4647 59.7285 85.6429 61.9122 85.6429C64.1084 85.6429 65.1566 87.4772 65.1566 90.0602C65.1566 92.6807 64.1084 94.4901 61.9122 94.4901ZM60.2775 90.0602C60.2775 90.7715 60.3149 91.3705 60.4148 91.8446L62.7108 87.0779C62.4987 86.9531 62.2366 86.8907 61.9122 86.8907C61.3257 86.8907 60.9389 87.1028 60.6893 87.5271C60.3649 88.0387 60.2775 88.8873 60.2775 90.0602ZM61.0512 93.0301C61.2758 93.1923 61.5503 93.2672 61.9122 93.2672C62.4238 93.2672 62.7857 93.105 63.0352 92.7805C63.447 92.2689 63.5593 91.3455 63.5593 90.0602C63.5593 89.2866 63.5219 88.6502 63.3971 88.1635L61.0512 93.0301ZM69.5406 94.4901C67.4317 94.4901 66.3212 92.9802 66.3212 90.0602C66.3212 87.4647 67.3569 85.6429 69.5406 85.6429C71.7368 85.6429 72.785 87.4772 72.785 90.0602C72.785 92.6807 71.7368 94.4901 69.5406 94.4901ZM67.9059 90.0602C67.9059 90.7715 67.9434 91.3705 68.0432 91.8446L70.3392 87.0779C70.1271 86.9531 69.865 86.8907 69.5406 86.8907C68.9541 86.8907 68.5673 87.1028 68.3177 87.5271C67.9933 88.0387 67.9059 88.8873 67.9059 90.0602ZM68.6796 93.0301C68.9042 93.1923 69.1787 93.2672 69.5406 93.2672C70.0522 93.2672 70.4141 93.105 70.6637 92.7805C71.0754 92.2689 71.1877 91.3455 71.1877 90.0602C71.1877 89.2866 71.1503 88.6502 71.0255 88.1635L68.6796 93.0301ZM77.169 94.4901C75.0602 94.4901 73.9496 92.9802 73.9496 90.0602C73.9496 87.4647 74.9853 85.6429 77.169 85.6429C79.3652 85.6429 80.4134 87.4772 80.4134 90.0602C80.4134 92.6807 79.3652 94.4901 77.169 94.4901ZM75.5343 90.0602C75.5343 90.7715 75.5718 91.3705 75.6716 91.8446L77.9676 87.0779C77.7555 86.9531 77.4935 86.8907 77.169 86.8907C76.5825 86.8907 76.1957 87.1028 75.9461 87.5271C75.6217 88.0387 75.5343 88.8873 75.5343 90.0602ZM76.308 93.0301C76.5326 93.1923 76.8071 93.2672 77.169 93.2672C77.6806 93.2672 78.0425 93.105 78.2921 92.7805C78.7039 92.2689 78.8162 91.3455 78.8162 90.0602C78.8162 89.2866 78.7787 88.6502 78.6539 88.1635L76.308 93.0301Z" fill="#093C52" style="fill:#093C52;fill:color(display-p3 0.0350 0.2339 0.3215);fill-opacity:1;"/>
<rect x="49.0426" y="98.7578" width="30.0228" height="12.6625" rx="6.33126" fill="#F6F6F6" style="fill:#F6F6F6;fill:color(display-p3 0.9634 0.9634 0.9634);fill-opacity:1;"/>
<circle cx="55.3738" cy="105.089" r="3.45341" fill="#093C52" style="fill:#093C52;fill:color(display-p3 0.0350 0.2339 0.3215);fill-opacity:1;"/>
<path d="M61.7247 106.589V104.172H63.3271V104.531H62.1564V105.191H63.2028V105.546H62.1564V106.23H63.3271V106.589H61.7247ZM64.3473 106.589V104.538H63.6083V104.172H65.5215V104.538H64.779V106.589H64.3473ZM65.8475 106.589V104.172H66.2791V105.184H67.2426V104.172H67.6743V106.589H67.2426V105.553H66.2791V106.589H65.8475Z" fill="#093C52" style="fill:#093C52;fill:color(display-p3 0.0350 0.2339 0.3215);fill-opacity:1;"/>
<path d="M71.0073 103.794L73.5974 106.384L76.1874 103.794" stroke="#093C52" style="stroke:#093C52;stroke:color(display-p3 0.0350 0.2339 0.3215);stroke-opacity:1;" stroke-width="0.575569"/>
<g filter="url(#filter1_d_130_5256)">
<rect x="66.2697" y="6.49512" width="44.5549" height="14.9648" rx="6.90683" fill="#F6F6F6" style="fill:#F6F6F6;fill:color(display-p3 0.9634 0.9634 0.9634);fill-opacity:1;" shape-rendering="crispEdges"/>
<circle cx="73.7519" cy="13.9773" r="3.45341" fill="#F53293" style="fill:#F53293;fill:color(display-p3 0.9608 0.1961 0.5765);fill-opacity:1;"/>
<path d="M80.0243 16.1222V13.8659H80.4046V14.0851C80.5142 13.9143 80.6947 13.8273 80.8945 13.8273C81.3071 13.8273 81.6133 14.1464 81.6133 14.6717C81.6133 15.181 81.32 15.5162 80.9042 15.5162C80.7011 15.5162 80.5271 15.4389 80.4046 15.2745V16.1222H80.0243ZM80.3949 14.6653C80.3949 14.9908 80.4755 15.2326 80.7882 15.2326C80.9203 15.2326 81.017 15.1971 81.0782 15.1262C81.1653 15.036 81.1975 14.878 81.1975 14.6685C81.1975 14.2979 81.104 14.1077 80.7978 14.1077C80.6689 14.1077 80.5722 14.1496 80.5045 14.2334C80.4304 14.3269 80.3949 14.4751 80.3949 14.6653ZM81.947 15.4775V15.1713H82.2629V13.5275H82.0018V13.2213H82.6432V15.1713H82.9301V15.4775H81.947ZM83.8702 15.5162C83.5737 15.5162 83.3126 15.3583 83.3126 15.0327C83.3126 14.6879 83.5995 14.5912 83.8928 14.5364L84.3731 14.4461C84.3731 14.3398 84.3731 14.2624 84.3279 14.1979C84.2828 14.1367 84.2022 14.1077 84.0701 14.1077C83.8477 14.1077 83.7445 14.185 83.7413 14.4107L83.3674 14.3623C83.3771 14.1721 83.448 14.0368 83.5705 13.953C83.6898 13.8692 83.867 13.8273 84.0926 13.8273C84.5084 13.8273 84.7437 14.0078 84.7437 14.3591V15.1875C84.7437 15.2938 84.7663 15.3873 84.7985 15.4646V15.4775H84.415C84.4021 15.4163 84.3924 15.3486 84.3924 15.2487C84.3086 15.4066 84.1346 15.5162 83.8702 15.5162ZM83.7026 15.0295C83.7026 15.1681 83.8122 15.2358 83.9508 15.2358C84.2248 15.2358 84.3731 15.0972 84.3731 14.8587V14.7072L83.9541 14.7974C83.8058 14.8329 83.7026 14.8812 83.7026 15.0295ZM85.9786 15.5162C85.4661 15.5162 85.1631 15.2003 85.1631 14.6717C85.1631 14.1754 85.4661 13.8273 85.9786 13.8273C86.4073 13.8273 86.6394 14.069 86.7038 14.3978L86.3428 14.4622C86.3042 14.2817 86.2236 14.1174 85.9786 14.1174C85.8303 14.1174 85.7369 14.1625 85.6756 14.2431C85.6047 14.3398 85.5789 14.488 85.5789 14.6717C85.5789 15.0198 85.6595 15.2261 85.9786 15.2261C86.1849 15.2261 86.2945 15.1262 86.3428 14.9264L86.7103 14.9651C86.6587 15.2906 86.3815 15.5162 85.9786 15.5162ZM87.8034 15.5162C87.552 15.5162 87.3586 15.4356 87.22 15.2938C87.0718 15.1423 87.0041 14.9296 87.0041 14.6685C87.0041 14.4203 87.075 14.2076 87.22 14.0529C87.3618 13.9046 87.5552 13.8273 87.8002 13.8273C88.0548 13.8273 88.2708 13.924 88.4062 14.0948C88.5351 14.256 88.5995 14.5009 88.5899 14.7781H87.3909C87.3973 15.0779 87.5327 15.2294 87.8002 15.2294C88.0355 15.2294 88.158 15.1294 88.1934 14.9328L88.5641 14.9618C88.4803 15.3325 88.216 15.5162 87.8034 15.5162ZM87.3941 14.4912H88.1999C88.1934 14.401 88.1644 14.3075 88.1096 14.2398C88.0387 14.1528 87.942 14.1141 87.8002 14.1141C87.6487 14.1141 87.5391 14.1657 87.4747 14.256C87.4231 14.3269 87.4005 14.4139 87.3941 14.4912ZM88.9859 15.4775V13.2213H89.3662V14.1045C89.4533 13.9175 89.6305 13.8273 89.8465 13.8273C90.056 13.8273 90.1946 13.8756 90.3074 13.9981C90.4363 14.1335 90.4396 14.314 90.4396 14.5041V15.4775H90.0528V14.5235C90.0528 14.3752 90.0463 14.285 89.9657 14.2076C89.8916 14.1335 89.8143 14.127 89.7208 14.127C89.5822 14.127 89.3695 14.1979 89.3695 14.5815V15.4775H88.9859ZM91.6185 15.5162C91.1028 15.5162 90.7966 15.1971 90.7966 14.6717C90.7966 14.1818 91.106 13.8273 91.6185 13.8273C92.1246 13.8273 92.4404 14.185 92.4404 14.6717C92.4404 15.1778 92.1149 15.5162 91.6185 15.5162ZM91.2059 14.6717C91.2059 14.8845 91.2414 15.036 91.3252 15.1262C91.3897 15.2003 91.4864 15.2358 91.6185 15.2358C91.7571 15.2358 91.8538 15.1971 91.9183 15.1198C91.9988 15.0263 92.0311 14.878 92.0311 14.6717C92.0311 14.4655 91.9956 14.3172 91.9183 14.2237C91.8506 14.1464 91.7539 14.1077 91.6185 14.1077C91.4864 14.1077 91.3897 14.1431 91.322 14.2173C91.2414 14.3075 91.2059 14.459 91.2059 14.6717ZM92.7875 15.4775V15.1713H93.1034V13.5275H92.8423V13.2213H93.4837V15.1713H93.7706V15.4775H92.7875ZM94.8171 15.5162C94.3949 15.5162 94.0887 15.1971 94.0887 14.6717C94.0887 14.1625 94.3787 13.8273 94.8107 13.8273C95.0202 13.8273 95.1845 13.9078 95.2941 14.0626V13.2213H95.6745V15.4775H95.2941V15.2487C95.2007 15.426 95.0298 15.5162 94.8171 15.5162ZM94.5044 14.6717C94.5044 15.0424 94.5915 15.2358 94.9041 15.2358C95.0234 15.2358 95.1169 15.1939 95.1813 15.1198C95.2651 15.0231 95.3038 14.8748 95.3038 14.675C95.3038 14.3526 95.2168 14.1109 94.9106 14.1109C94.7623 14.1109 94.6624 14.156 94.6011 14.2431C94.5302 14.3365 94.5044 14.4816 94.5044 14.6717ZM96.8623 15.5162C96.6109 15.5162 96.4175 15.4356 96.2789 15.2938C96.1307 15.1423 96.063 14.9296 96.063 14.6685C96.063 14.4203 96.1339 14.2076 96.2789 14.0529C96.4208 13.9046 96.6142 13.8273 96.8591 13.8273C97.1137 13.8273 97.3297 13.924 97.4651 14.0948C97.594 14.256 97.6585 14.5009 97.6488 14.7781H96.4498C96.4562 15.0779 96.5916 15.2294 96.8591 15.2294C97.0944 15.2294 97.2169 15.1294 97.2523 14.9328L97.623 14.9618C97.5392 15.3325 97.2749 15.5162 96.8623 15.5162ZM96.453 14.4912H97.2588C97.2523 14.401 97.2233 14.3075 97.1685 14.2398C97.0976 14.1528 97.0009 14.1141 96.8591 14.1141C96.7076 14.1141 96.598 14.1657 96.5336 14.256C96.482 14.3269 96.4594 14.4139 96.453 14.4912ZM98.177 15.4775V13.8659H98.5541V14.1818C98.6153 13.9949 98.799 13.8563 99.0956 13.8305C99.131 13.8273 99.1987 13.8273 99.2503 13.8273L99.2406 14.1754C99.1923 14.1721 99.1568 14.1721 99.1181 14.1721C98.7765 14.1721 98.5573 14.3011 98.5573 14.7523V15.4775H98.177ZM99.756 15.4775V15.0166H100.21V15.4775H99.756ZM101.615 15.5162C101.364 15.5162 101.17 15.4356 101.032 15.2938C100.884 15.1423 100.816 14.9296 100.816 14.6685C100.816 14.4203 100.887 14.2076 101.032 14.0529C101.174 13.9046 101.367 13.8273 101.612 13.8273C101.867 13.8273 102.083 13.924 102.218 14.0948C102.347 14.256 102.411 14.5009 102.402 14.7781H101.203C101.209 15.0779 101.345 15.2294 101.612 15.2294C101.847 15.2294 101.97 15.1294 102.005 14.9328L102.376 14.9618C102.292 15.3325 102.028 15.5162 101.615 15.5162ZM101.206 14.4912H102.012C102.005 14.401 101.976 14.3075 101.921 14.2398C101.851 14.1528 101.754 14.1141 101.612 14.1141C101.461 14.1141 101.351 14.1657 101.287 14.256C101.235 14.3269 101.212 14.4139 101.206 14.4912ZM103.588 15.4937C103.233 15.4937 103.04 15.3744 103.04 15.0456V14.1721H102.711V13.8659H103.04V13.4179H103.414V13.8659H103.865V14.1721H103.414V15.0102C103.414 15.1359 103.485 15.1681 103.636 15.1681C103.701 15.1681 103.778 15.1584 103.855 15.1391L103.862 15.4646C103.784 15.484 103.675 15.4937 103.588 15.4937ZM104.328 15.4775V13.2213H104.708V14.1045C104.795 13.9175 104.972 13.8273 105.188 13.8273C105.398 13.8273 105.536 13.8756 105.649 13.9981C105.778 14.1335 105.781 14.314 105.781 14.5041V15.4775H105.394V14.5235C105.394 14.3752 105.388 14.285 105.307 14.2076C105.233 14.1335 105.156 14.127 105.062 14.127C104.924 14.127 104.711 14.1979 104.711 14.5815V15.4775H104.328Z" fill="#093C52" style="fill:#093C52;fill:color(display-p3 0.0350 0.2339 0.3215);fill-opacity:1;"/>
</g>
</g>
<rect x="11.6774" y="3.07059" width="105.156" height="140.209" rx="4.63333" stroke="#E5E5E5" style="stroke:#E5E5E5;stroke:color(display-p3 0.8980 0.8980 0.8980);stroke-opacity:1;" stroke-width="0.402898"/>
</g>
<defs>
<filter id="filter0_d_130_5256" x="-1.04904e-05" y="0.000148773" width="128.511" height="163.563" filterUnits="userSpaceOnUse" color-interpolation-filters="sRGB">
<feFlood flood-opacity="0" result="BackgroundImageFix"/>
<feColorMatrix in="SourceAlpha" type="matrix" values="0 0 0 0 0 0 0 0 0 0 0 0 0 0 0 0 0 0 127 0" result="hardAlpha"/>
<feOffset dy="8.60697"/>
<feGaussianBlur stdDeviation="5.73798"/>
<feComposite in2="hardAlpha" operator="out"/>
<feColorMatrix type="matrix" values="0 0 0 0 0.0543419 0 0 0 0 0.238372 0 0 0 0 0.408247 0 0 0 0.06 0"/>
<feBlend mode="normal" in2="BackgroundImageFix" result="effect1_dropShadow_130_5256"/>
<feBlend mode="normal" in="SourceGraphic" in2="effect1_dropShadow_130_5256" result="shape"/>
</filter>
<filter id="filter1_d_130_5256" x="53.3769" y="3.27193" width="70.3403" height="40.7503" filterUnits="userSpaceOnUse" color-interpolation-filters="sRGB">
<feFlood flood-opacity="0" result="BackgroundImageFix"/>
<feColorMatrix in="SourceAlpha" type="matrix" values="0 0 0 0 0 0 0 0 0 0 0 0 0 0 0 0 0 0 127 0" result="hardAlpha"/>
<feOffset dy="9.66956"/>
<feGaussianBlur stdDeviation="6.44637"/>
<feComposite in2="hardAlpha" operator="out"/>
<feColorMatrix type="matrix" values="0 0 0 0 0.0543419 0 0 0 0 0.238372 0 0 0 0 0.408247 0 0 0 0.06 0"/>
<feBlend mode="normal" in2="BackgroundImageFix" result="effect1_dropShadow_130_5256"/>
<feBlend mode="normal" in="SourceGraphic" in2="effect1_dropShadow_130_5256" result="shape"/>
</filter>
<clipPath id="clip0_130_5256">
<rect x="11.476" y="2.86914" width="105.559" height="140.612" rx="4.83478" fill="white" style="fill:white;fill-opacity:1;"/>
</clipPath>
</defs>
</svg>
