<svg width="313" height="250" viewBox="0 0 313 250" fill="none" xmlns="http://www.w3.org/2000/svg">
<g filter="url(#filter0_d_132_2651)">
<path d="M276.165 47.8633C275.824 47.5219 275.361 47.3301 274.878 47.3301H55.8204C54.815 47.3301 54 46.5151 54 45.5097V5.46101C54 4.45564 54.815 3.64062 55.8204 3.64062H296.565C297.571 3.64062 298.386 4.45564 298.386 5.46101V45.5097C298.386 46.5151 297.571 47.3301 296.565 47.3301H289.057C288.051 47.3301 287.236 48.1451 287.236 49.1505V54.5398C287.236 56.1616 285.276 56.9738 284.129 55.827L276.165 47.8633Z" fill="#0080BC" style="fill:#0080BC;fill:color(display-p3 0.0000 0.5020 0.7373);fill-opacity:1;"/>
</g>
<path d="M67.3502 22.6528L66.0177 15.0072H67.383L67.951 19.3761C68.082 20.2281 68.1148 20.6541 68.1803 21.1892H68.224C68.3114 20.6759 68.4206 20.0096 68.5408 19.4089L69.3381 15.7718H70.758L71.5772 19.4089C71.7191 20.0642 71.8065 20.6541 71.8939 21.1892H71.9376C72.0031 20.665 72.0577 20.0424 72.156 19.3761L72.724 15.0072H74.0784L72.7458 22.6528H71.1621L70.3866 18.9502C70.2774 18.4587 70.1463 17.7269 70.0699 17.2354H70.0262C69.9388 17.7596 69.8405 18.3494 69.7094 18.9611L68.9558 22.6528H67.3502ZM75.0882 22.6528V15.0072H76.3771V17.9999C76.672 17.3664 77.2727 17.0606 78.0045 17.0606C78.7145 17.0606 79.1841 17.2245 79.5664 17.6395C80.0033 18.0982 80.0142 18.7099 80.0142 19.3543V22.6528H78.7035V19.4198C78.7035 18.9174 78.6817 18.6116 78.4086 18.3494C78.1574 18.0982 77.8953 18.0764 77.5785 18.0764C77.1089 18.0764 76.388 18.3167 76.388 19.6164V22.6528H75.0882ZM83.2775 22.7839C82.2726 22.7839 81.3879 22.2487 81.3879 21.1456C81.3879 19.9769 82.36 19.6492 83.354 19.4635L84.9814 19.1577C84.9814 18.7973 84.9814 18.5351 84.8285 18.3167C84.6755 18.1092 84.4025 18.0109 83.9547 18.0109C83.201 18.0109 82.8515 18.273 82.8406 19.0376L81.5736 18.8737C81.6064 18.2293 81.8467 17.7706 82.2617 17.4866C82.6658 17.2026 83.2666 17.0606 84.0311 17.0606C85.4401 17.0606 86.2374 17.6723 86.2374 18.8628V21.6698C86.2374 22.0303 86.3139 22.347 86.4231 22.6091V22.6528H85.1234C85.0797 22.4453 85.0469 22.2159 85.0469 21.8773C84.7629 22.4125 84.1731 22.7839 83.2775 22.7839ZM82.7095 21.1346C82.7095 21.6043 83.0809 21.8337 83.5506 21.8337C84.4789 21.8337 84.9814 21.364 84.9814 20.5558V20.0424L83.5615 20.3482C83.0591 20.4684 82.7095 20.6322 82.7095 21.1346ZM90.5648 22.7074C89.3633 22.7074 88.708 22.3033 88.708 21.1892V18.2293H87.5939V17.1917H88.708V15.6735H89.975V17.1917H91.5041V18.2293H89.975V21.0691C89.975 21.4951 90.2153 21.6043 90.7286 21.6043C90.9471 21.6043 91.2092 21.5715 91.4714 21.506L91.4932 22.6091C91.2311 22.6747 90.8597 22.7074 90.5648 22.7074ZM93.869 17.4101C94.2512 17.3118 94.4806 17.006 94.4915 16.4817H93.8471V15.0072H95.267V16.4927C95.267 17.3664 94.6881 17.9562 93.869 18.0982V17.4101ZM99.7161 22.7839C98.4382 22.7839 97.3351 22.2269 97.2914 20.9162L98.5038 20.7742C98.5147 21.4841 99.0062 21.8555 99.7271 21.8555C100.459 21.8555 100.841 21.5934 100.841 21.1346C100.841 20.6541 100.164 20.5667 99.3448 20.3592C98.3727 20.1079 97.4443 19.8021 97.4443 18.699C97.4443 17.5303 98.5038 17.0606 99.596 17.0606C100.787 17.0606 101.802 17.4975 101.922 18.7973L100.732 18.9939C100.699 18.3167 100.284 17.989 99.596 17.989C99.1154 17.989 98.6676 18.1747 98.6676 18.6007C98.6676 19.0266 99.17 19.1577 99.8691 19.3106C100.896 19.54 102.064 19.7693 102.064 21.0582C102.064 22.3798 100.918 22.7839 99.7161 22.7839ZM108.955 24.8919C108.693 24.8919 108.343 24.8373 108.092 24.7608L108.114 23.614C108.311 23.6686 108.54 23.7341 108.769 23.7341C109.25 23.7341 109.414 23.4392 109.698 22.6419L107.59 17.1917H108.988L109.872 19.8349C109.993 20.1953 110.145 20.6868 110.298 21.222C110.44 20.7196 110.571 20.3045 110.746 19.7803L111.576 17.1917H112.931L110.823 23.1116C110.386 24.3786 109.905 24.8919 108.955 24.8919ZM116.478 22.7839C114.73 22.7839 113.692 21.7026 113.692 19.9223C113.692 18.2621 114.741 17.0606 116.478 17.0606C118.192 17.0606 119.263 18.273 119.263 19.9223C119.263 21.6371 118.16 22.7839 116.478 22.7839ZM115.079 19.9223C115.079 20.6431 115.2 21.1565 115.484 21.4623C115.702 21.7135 116.03 21.8337 116.478 21.8337C116.947 21.8337 117.275 21.7026 117.493 21.4405C117.766 21.1237 117.876 20.6213 117.876 19.9223C117.876 19.2232 117.755 18.7208 117.493 18.4041C117.264 18.1419 116.936 18.0109 116.478 18.0109C116.03 18.0109 115.702 18.131 115.473 18.3822C115.2 18.688 115.079 19.2014 115.079 19.9223ZM122.536 22.7839C121.837 22.7839 121.356 22.5982 120.963 22.1832C120.526 21.7244 120.493 21.0473 120.493 20.3919V17.1917H121.815V20.3264C121.815 20.796 121.815 21.2002 122.088 21.4841C122.339 21.7463 122.634 21.7681 122.951 21.7681C123.453 21.7681 124.131 21.506 124.131 20.2062V17.1917H125.408V22.6528H124.141V21.8555C123.847 22.4562 123.29 22.7839 122.536 22.7839ZM127.47 22.6528V17.1917H128.748V18.2621C128.956 17.6286 129.578 17.1589 130.583 17.0715C130.703 17.0606 130.933 17.0606 131.107 17.0606L131.075 18.2402C130.911 18.2293 130.791 18.2293 130.66 18.2293C129.502 18.2293 128.759 18.6662 128.759 20.1953V22.6528H127.47ZM139.37 22.7839C137.633 22.7839 136.606 21.7135 136.606 19.9223C136.606 18.2402 137.633 17.0606 139.37 17.0606C140.822 17.0606 141.609 17.8798 141.827 18.9939L140.604 19.2123C140.473 18.6007 140.2 18.0436 139.37 18.0436C138.867 18.0436 138.551 18.1965 138.343 18.4696C138.103 18.7973 138.015 19.2997 138.015 19.9223C138.015 21.1019 138.288 21.8009 139.37 21.8009C140.069 21.8009 140.44 21.4623 140.604 20.7851L141.849 20.9162C141.674 22.0193 140.735 22.7839 139.37 22.7839ZM143.576 22.6528V17.1917H144.854V18.2621C145.062 17.6286 145.684 17.1589 146.689 17.0715C146.809 17.0606 147.039 17.0606 147.214 17.0606L147.181 18.2402C147.017 18.2293 146.897 18.2293 146.766 18.2293C145.608 18.2293 144.865 18.6662 144.865 20.1953V22.6528H143.576ZM149.583 24.8919C149.321 24.8919 148.971 24.8373 148.72 24.7608L148.742 23.614C148.938 23.6686 149.168 23.7341 149.397 23.7341C149.878 23.7341 150.042 23.4392 150.326 22.6419L148.218 17.1917H149.616L150.5 19.8349C150.621 20.1953 150.773 20.6868 150.926 21.222C151.068 20.7196 151.199 20.3045 151.374 19.7803L152.204 17.1917H153.559L151.451 23.1116C151.014 24.3786 150.533 24.8919 149.583 24.8919ZM154.679 24.8373V17.1917H155.968V17.9344C156.339 17.3555 156.951 17.0606 157.628 17.0606C159.026 17.0606 160.064 18.1419 160.064 19.9223C160.064 21.648 159.07 22.7839 157.661 22.7839C156.973 22.7839 156.383 22.5218 155.968 21.9647V24.8373H154.679ZM155.935 19.9004C155.935 21.0036 156.208 21.8227 157.268 21.8227C157.716 21.8227 158.043 21.7026 158.251 21.4623C158.546 21.1565 158.655 20.6213 158.655 19.9113C158.655 18.6553 158.338 18.0109 157.301 18.0109C156.864 18.0109 156.536 18.1528 156.307 18.4368C156.055 18.7536 155.935 19.256 155.935 19.9004ZM163.981 22.7074C162.78 22.7074 162.124 22.3033 162.124 21.1892V18.2293H161.01V17.1917H162.124V15.6735H163.391V17.1917H164.92V18.2293H163.391V21.0691C163.391 21.4951 163.631 21.6043 164.145 21.6043C164.363 21.6043 164.625 21.5715 164.888 21.506L164.909 22.6091C164.647 22.6747 164.276 22.7074 163.981 22.7074ZM168.892 22.7839C167.144 22.7839 166.107 21.7026 166.107 19.9223C166.107 18.2621 167.155 17.0606 168.892 17.0606C170.607 17.0606 171.677 18.273 171.677 19.9223C171.677 21.6371 170.574 22.7839 168.892 22.7839ZM167.494 19.9223C167.494 20.6431 167.614 21.1565 167.898 21.4623C168.116 21.7135 168.444 21.8337 168.892 21.8337C169.361 21.8337 169.689 21.7026 169.908 21.4405C170.181 21.1237 170.29 20.6213 170.29 19.9223C170.29 19.2232 170.17 18.7208 169.908 18.4041C169.678 18.1419 169.35 18.0109 168.892 18.0109C168.444 18.0109 168.116 18.131 167.887 18.3822C167.614 18.688 167.494 19.2014 167.494 19.9223ZM179.21 22.7839C178.205 22.7839 177.321 22.2487 177.321 21.1456C177.321 19.9769 178.293 19.6492 179.287 19.4635L180.914 19.1577C180.914 18.7973 180.914 18.5351 180.761 18.3167C180.608 18.1092 180.335 18.0109 179.887 18.0109C179.134 18.0109 178.784 18.273 178.773 19.0376L177.506 18.8737C177.539 18.2293 177.779 17.7706 178.194 17.4866C178.599 17.2026 179.199 17.0606 179.964 17.0606C181.373 17.0606 182.17 17.6723 182.17 18.8628V21.6698C182.17 22.0303 182.247 22.347 182.356 22.6091V22.6528H181.056C181.012 22.4453 180.98 22.2159 180.98 21.8773C180.696 22.4125 180.106 22.7839 179.21 22.7839ZM178.642 21.1346C178.642 21.6043 179.014 21.8337 179.483 21.8337C180.412 21.8337 180.914 21.364 180.914 20.5558V20.0424L179.494 20.3482C178.992 20.4684 178.642 20.6322 178.642 21.1346ZM185.885 22.7839C184.454 22.7839 183.417 21.7026 183.417 19.9223C183.417 18.1965 184.4 17.0606 185.863 17.0606C186.573 17.0606 187.13 17.3337 187.502 17.8579V15.0072H188.79V22.6528H187.502V21.8773C187.185 22.4781 186.606 22.7839 185.885 22.7839ZM184.826 19.9223C184.826 21.1783 185.121 21.8337 186.18 21.8337C186.584 21.8337 186.901 21.6917 187.119 21.4405C187.403 21.1128 187.534 20.6104 187.534 19.9332C187.534 18.841 187.239 18.0218 186.202 18.0218C185.699 18.0218 185.361 18.1747 185.153 18.4696C184.913 18.7863 184.826 19.2778 184.826 19.9223ZM192.466 22.7839C191.035 22.7839 189.998 21.7026 189.998 19.9223C189.998 18.1965 190.981 17.0606 192.444 17.0606C193.154 17.0606 193.711 17.3337 194.083 17.8579V15.0072H195.372V22.6528H194.083V21.8773C193.766 22.4781 193.187 22.7839 192.466 22.7839ZM191.407 19.9223C191.407 21.1783 191.702 21.8337 192.761 21.8337C193.165 21.8337 193.482 21.6917 193.7 21.4405C193.984 21.1128 194.115 20.6104 194.115 19.9332C194.115 18.841 193.821 18.0218 192.783 18.0218C192.281 18.0218 191.942 18.1747 191.734 18.4696C191.494 18.7863 191.407 19.2778 191.407 19.9223ZM197.42 22.6528V17.1917H198.698V18.2621C198.905 17.6286 199.528 17.1589 200.533 17.0715C200.653 17.0606 200.882 17.0606 201.057 17.0606L201.024 18.2402C200.86 18.2293 200.74 18.2293 200.609 18.2293C199.451 18.2293 198.709 18.6662 198.709 20.1953V22.6528H197.42ZM204.709 22.7839C203.857 22.7839 203.201 22.5108 202.732 22.0303C202.229 21.5169 202 20.796 202 19.9113C202 19.0703 202.24 18.3494 202.732 17.8252C203.212 17.3228 203.868 17.0606 204.698 17.0606C205.561 17.0606 206.292 17.3883 206.751 17.9672C207.188 18.5133 207.406 19.3434 207.374 20.2827H203.311C203.332 21.2985 203.791 21.8118 204.698 21.8118C205.495 21.8118 205.91 21.4732 206.03 20.807L207.286 20.9053C207.002 22.1613 206.107 22.7839 204.709 22.7839ZM203.322 19.3106H206.052C206.03 19.0048 205.932 18.688 205.746 18.4587C205.506 18.1638 205.178 18.0327 204.698 18.0327C204.184 18.0327 203.813 18.2075 203.595 18.5133C203.42 18.7536 203.343 19.0485 203.322 19.3106ZM210.966 22.7839C209.688 22.7839 208.585 22.2269 208.541 20.9162L209.753 20.7742C209.764 21.4841 210.256 21.8555 210.977 21.8555C211.708 21.8555 212.091 21.5934 212.091 21.1346C212.091 20.6541 211.414 20.5667 210.594 20.3592C209.622 20.1079 208.694 19.8021 208.694 18.699C208.694 17.5303 209.753 17.0606 210.846 17.0606C212.036 17.0606 213.052 17.4975 213.172 18.7973L211.981 18.9939C211.949 18.3167 211.534 17.989 210.846 17.989C210.365 17.989 209.917 18.1747 209.917 18.6007C209.917 19.0266 210.42 19.1577 211.119 19.3106C212.145 19.54 213.314 19.7693 213.314 21.0582C213.314 22.3798 212.167 22.7839 210.966 22.7839ZM217.056 22.7839C215.778 22.7839 214.675 22.2269 214.631 20.9162L215.844 20.7742C215.855 21.4841 216.346 21.8555 217.067 21.8555C217.799 21.8555 218.181 21.5934 218.181 21.1346C218.181 20.6541 217.504 20.5667 216.685 20.3592C215.713 20.1079 214.784 19.8021 214.784 18.699C214.784 17.5303 215.844 17.0606 216.936 17.0606C218.127 17.0606 219.142 17.4975 219.262 18.7973L218.072 18.9939C218.039 18.3167 217.624 17.989 216.936 17.989C216.455 17.989 216.008 18.1747 216.008 18.6007C216.008 19.0266 216.51 19.1577 217.209 19.3106C218.236 19.54 219.404 19.7693 219.404 21.0582C219.404 22.3798 218.258 22.7839 217.056 22.7839ZM227.68 22.7839C226.402 22.7839 225.299 22.2269 225.255 20.9162L226.467 20.7742C226.478 21.4841 226.97 21.8555 227.691 21.8555C228.423 21.8555 228.805 21.5934 228.805 21.1346C228.805 20.6541 228.128 20.5667 227.308 20.3592C226.336 20.1079 225.408 19.8021 225.408 18.699C225.408 17.5303 226.467 17.0606 227.56 17.0606C228.75 17.0606 229.766 17.4975 229.886 18.7973L228.696 18.9939C228.663 18.3167 228.248 17.989 227.56 17.989C227.079 17.989 226.631 18.1747 226.631 18.6007C226.631 19.0266 227.134 19.1577 227.833 19.3106C228.859 19.54 230.028 19.7693 230.028 21.0582C230.028 22.3798 228.881 22.7839 227.68 22.7839ZM233.967 22.7839C232.219 22.7839 231.182 21.7026 231.182 19.9223C231.182 18.2621 232.23 17.0606 233.967 17.0606C235.682 17.0606 236.752 18.273 236.752 19.9223C236.752 21.6371 235.649 22.7839 233.967 22.7839ZM232.569 19.9223C232.569 20.6431 232.689 21.1565 232.973 21.4623C233.191 21.7135 233.519 21.8337 233.967 21.8337C234.437 21.8337 234.764 21.7026 234.983 21.4405C235.256 21.1237 235.365 20.6213 235.365 19.9223C235.365 19.2232 235.245 18.7208 234.983 18.4041C234.753 18.1419 234.426 18.0109 233.967 18.0109C233.519 18.0109 233.191 18.131 232.962 18.3822C232.689 18.688 232.569 19.2014 232.569 19.9223ZM242.636 22.6528V21.5388H243.521V16.1213H242.636V15.0072H245.76V16.1213H244.886V21.5388H245.76V22.6528H242.636ZM254.544 22.7839C252.808 22.7839 251.781 21.7135 251.781 19.9223C251.781 18.2402 252.808 17.0606 254.544 17.0606C255.997 17.0606 256.784 17.8798 257.002 18.9939L255.779 19.2123C255.648 18.6007 255.375 18.0436 254.544 18.0436C254.042 18.0436 253.725 18.1965 253.518 18.4696C253.277 18.7973 253.19 19.2997 253.19 19.9223C253.19 21.1019 253.463 21.8009 254.544 21.8009C255.243 21.8009 255.615 21.4623 255.779 20.7851L257.024 20.9162C256.849 22.0193 255.91 22.7839 254.544 22.7839ZM260.018 22.7839C259.013 22.7839 258.129 22.2487 258.129 21.1456C258.129 19.9769 259.101 19.6492 260.095 19.4635L261.722 19.1577C261.722 18.7973 261.722 18.5351 261.569 18.3167C261.416 18.1092 261.143 18.0109 260.695 18.0109C259.942 18.0109 259.592 18.273 259.581 19.0376L258.314 18.8737C258.347 18.2293 258.587 17.7706 259.002 17.4866C259.407 17.2026 260.007 17.0606 260.772 17.0606C262.181 17.0606 262.978 17.6723 262.978 18.8628V21.6698C262.978 22.0303 263.055 22.347 263.164 22.6091V22.6528H261.864C261.82 22.4453 261.788 22.2159 261.788 21.8773C261.504 22.4125 260.914 22.7839 260.018 22.7839ZM259.45 21.1346C259.45 21.6043 259.822 21.8337 260.291 21.8337C261.22 21.8337 261.722 21.364 261.722 20.5558V20.0424L260.302 20.3482C259.8 20.4684 259.45 20.6322 259.45 21.1346ZM264.618 22.6528V17.1917H265.907V18.0109C266.191 17.3555 266.769 17.0606 267.545 17.0606C268.255 17.0606 268.714 17.2354 269.074 17.6177C269.511 18.0655 269.544 18.7208 269.544 19.3543V22.6528H268.233V19.4526C268.233 18.9502 268.211 18.6116 267.927 18.3385C267.687 18.0982 267.425 18.0764 267.097 18.0764C266.627 18.0764 265.907 18.3385 265.907 19.6601V22.6528H264.618ZM66.6075 36.8373V29.1917H67.8963V29.9344C68.2677 29.3555 68.8794 29.0606 69.5565 29.0606C70.9546 29.0606 71.9922 30.1419 71.9922 31.9223C71.9922 33.648 70.9983 34.7839 69.5893 34.7839C68.9012 34.7839 68.3114 34.5218 67.8963 33.9647V36.8373H66.6075ZM67.8636 31.9004C67.8636 33.0036 68.1366 33.8227 69.1961 33.8227C69.6439 33.8227 69.9716 33.7026 70.1791 33.4623C70.474 33.1565 70.5832 32.6213 70.5832 31.9113C70.5832 30.6553 70.2665 30.0109 69.2289 30.0109C68.792 30.0109 68.4643 30.1528 68.2349 30.4368C67.9837 30.7536 67.8636 31.256 67.8636 31.9004ZM74.9471 34.7839C73.9423 34.7839 73.0576 34.2487 73.0576 33.1456C73.0576 31.9769 74.0296 31.6492 75.0236 31.4635L76.651 31.1577C76.651 30.7973 76.651 30.5351 76.4981 30.3167C76.3452 30.1092 76.0721 30.0109 75.6243 30.0109C74.8707 30.0109 74.5211 30.273 74.5102 31.0376L73.2432 30.8737C73.276 30.2293 73.5163 29.7706 73.9313 29.4866C74.3355 29.2026 74.9362 29.0606 75.7008 29.0606C77.1097 29.0606 77.9071 29.6723 77.9071 30.8628V33.6698C77.9071 34.0303 77.9835 34.347 78.0927 34.6091V34.6528H76.793C76.7493 34.4453 76.7165 34.2159 76.7165 33.8773C76.4325 34.4125 75.8427 34.7839 74.9471 34.7839ZM74.3792 33.1346C74.3792 33.6043 74.7505 33.8337 75.2202 33.8337C76.1486 33.8337 76.651 33.364 76.651 32.5558V32.0424L75.2311 32.3482C74.7287 32.4684 74.3792 32.6322 74.3792 33.1346ZM80.4653 36.8919C80.2031 36.8919 79.8536 36.8373 79.6024 36.7608L79.6242 35.614C79.8208 35.6686 80.0502 35.7341 80.2796 35.7341C80.7602 35.7341 80.924 35.4392 81.208 34.6419L79.1 29.1917H80.498L81.3827 31.8349C81.5029 32.1953 81.6558 32.6868 81.8087 33.222C81.9507 32.7196 82.0818 32.3045 82.2565 31.7803L83.0866 29.1917H84.441L82.333 35.1116C81.8961 36.3786 81.4155 36.8919 80.4653 36.8919ZM90.9182 36.8919C90.6561 36.8919 90.3066 36.8373 90.0554 36.7608L90.0772 35.614C90.2738 35.6686 90.5032 35.7341 90.7326 35.7341C91.2131 35.7341 91.377 35.4392 91.661 34.6419L89.553 29.1917H90.951L91.8357 31.8349C91.9559 32.1953 92.1088 32.6868 92.2617 33.222C92.4037 32.7196 92.5347 32.3045 92.7095 31.7803L93.5396 29.1917H94.894L92.786 35.1116C92.3491 36.3786 91.8685 36.8919 90.9182 36.8919ZM98.4408 34.7839C96.6932 34.7839 95.6556 33.7026 95.6556 31.9223C95.6556 30.2621 96.7042 29.0606 98.4408 29.0606C100.156 29.0606 101.226 30.273 101.226 31.9223C101.226 33.6371 100.123 34.7839 98.4408 34.7839ZM97.0427 31.9223C97.0427 32.6431 97.1629 33.1565 97.4469 33.4623C97.6653 33.7135 97.993 33.8337 98.4408 33.8337C98.9105 33.8337 99.2381 33.7026 99.4566 33.4405C99.7296 33.1237 99.8389 32.6213 99.8389 31.9223C99.8389 31.2232 99.7187 30.7208 99.4566 30.4041C99.2272 30.1419 98.8995 30.0109 98.4408 30.0109C97.993 30.0109 97.6653 30.131 97.4359 30.3822C97.1629 30.688 97.0427 31.2014 97.0427 31.9223ZM104.499 34.7839C103.8 34.7839 103.32 34.5982 102.926 34.1832C102.489 33.7244 102.457 33.0473 102.457 32.3919V29.1917H103.778V32.3264C103.778 32.796 103.778 33.2002 104.051 33.4841C104.303 33.7463 104.597 33.7681 104.914 33.7681C105.417 33.7681 106.094 33.506 106.094 32.2062V29.1917H107.372V34.6528H106.105V33.8555C105.81 34.4562 105.253 34.7839 104.499 34.7839ZM110.602 32.0206C110.602 31.2997 110.908 30.8956 111.52 30.3385C111.946 29.9453 112.339 29.6177 112.339 29.0497C112.339 28.3507 112.011 27.9465 111.29 27.9465C110.296 27.9465 110.067 28.6893 110.078 29.4101L108.756 29.2026C108.789 27.9684 109.554 26.8762 111.334 26.8762C112.809 26.8762 113.682 27.7063 113.682 29.0388C113.682 29.9781 113.235 30.415 112.623 30.9393C112.164 31.3325 111.826 31.6492 111.826 32.239V32.4902H110.602V32.0206ZM110.559 34.6528V33.1674H112.022V34.6528H110.559Z" fill="#F6F6F6" style="fill:#F6F6F6;fill:color(display-p3 0.9634 0.9634 0.9634);fill-opacity:1;"/>
<g filter="url(#filter1_d_132_2651)">
<path d="M298.387 165.926C298.387 166.931 297.572 167.746 296.566 167.746H288.82C287.815 167.746 287 168.561 287 169.566V175.004C287 176.658 284.971 177.455 283.846 176.243L276.496 168.328C276.152 167.957 275.668 167.746 275.162 167.746H160.948C159.943 167.746 159.128 166.931 159.128 165.926V138.62C159.128 137.615 159.943 136.8 160.948 136.8H296.566C297.572 136.8 298.387 137.615 298.387 138.62V165.926Z" fill="#0080BC" style="fill:#0080BC;fill:color(display-p3 0.0000 0.5020 0.7373);fill-opacity:1;"/>
</g>
<path d="M172.022 155.812L170.69 148.166H172.055L172.623 152.535C172.754 153.387 172.787 153.813 172.852 154.348H172.896C172.984 153.835 173.093 153.169 173.213 152.568L174.01 148.931H175.43L176.249 152.568C176.391 153.223 176.479 153.813 176.566 154.348H176.61C176.675 153.824 176.73 153.202 176.828 152.535L177.396 148.166H178.75L177.418 155.812H175.834L175.059 152.109C174.95 151.618 174.818 150.886 174.742 150.395H174.698C174.611 150.919 174.513 151.509 174.382 152.12L173.628 155.812H172.022ZM182.036 155.943C180.289 155.943 179.251 154.862 179.251 153.081C179.251 151.421 180.3 150.22 182.036 150.22C183.751 150.22 184.821 151.432 184.821 153.081C184.821 154.796 183.718 155.943 182.036 155.943ZM180.638 153.081C180.638 153.802 180.758 154.316 181.042 154.621C181.261 154.873 181.588 154.993 182.036 154.993C182.506 154.993 182.834 154.862 183.052 154.6C183.325 154.283 183.434 153.78 183.434 153.081C183.434 152.382 183.314 151.88 183.052 151.563C182.823 151.301 182.495 151.17 182.036 151.17C181.588 151.17 181.261 151.29 181.031 151.541C180.758 151.847 180.638 152.361 180.638 153.081ZM186.753 155.812L185.409 150.351H186.687L187.222 153.234L187.462 154.72H187.495C187.594 154.25 187.725 153.54 187.79 153.234L188.369 150.722H189.636L190.193 153.234C190.269 153.584 190.379 154.196 190.466 154.72H190.499C190.608 154.064 190.652 153.879 190.75 153.234L191.285 150.351H192.563L191.231 155.812H189.8L189.265 153.453C189.199 153.158 189.09 152.546 189.003 152H188.97C188.882 152.513 188.795 153.081 188.708 153.453L188.172 155.812H186.753ZM194.092 155.812V154.25H195.632V155.812H194.092ZM205.267 155.943C203.301 155.943 202.001 154.643 202.001 151.989C202.001 149.543 203.301 148.035 205.431 148.035C206.993 148.035 208.085 148.855 208.467 150.373L207.091 150.646C206.894 149.728 206.403 149.138 205.431 149.138C204.753 149.138 204.251 149.346 203.923 149.805C203.596 150.263 203.443 150.984 203.443 151.989C203.443 153.016 203.596 153.726 203.923 154.185C204.251 154.643 204.743 154.84 205.453 154.84C206.545 154.84 207.2 154.141 207.287 152.852H205.365V151.672H208.544V155.812H207.451L207.375 154.862C206.982 155.539 206.228 155.943 205.267 155.943ZM212.307 155.943C210.56 155.943 209.522 154.862 209.522 153.081C209.522 151.421 210.571 150.22 212.307 150.22C214.022 150.22 215.092 151.432 215.092 153.081C215.092 154.796 213.989 155.943 212.307 155.943ZM210.909 153.081C210.909 153.802 211.029 154.316 211.313 154.621C211.532 154.873 211.859 154.993 212.307 154.993C212.777 154.993 213.105 154.862 213.323 154.6C213.596 154.283 213.705 153.78 213.705 153.081C213.705 152.382 213.585 151.88 213.323 151.563C213.094 151.301 212.766 151.17 212.307 151.17C211.859 151.17 211.532 151.29 211.302 151.541C211.029 151.847 210.909 152.361 210.909 153.081ZM223.631 155.867C222.429 155.867 221.774 155.462 221.774 154.348V151.388H220.66V150.351H221.774V148.833H223.041V150.351H224.57V151.388H223.041V154.228C223.041 154.654 223.281 154.763 223.794 154.763C224.013 154.763 224.275 154.731 224.537 154.665L224.559 155.768C224.297 155.834 223.926 155.867 223.631 155.867ZM228.541 155.943C226.794 155.943 225.756 154.862 225.756 153.081C225.756 151.421 226.805 150.22 228.541 150.22C230.256 150.22 231.327 151.432 231.327 153.081C231.327 154.796 230.223 155.943 228.541 155.943ZM227.143 153.081C227.143 153.802 227.263 154.316 227.547 154.621C227.766 154.873 228.094 154.993 228.541 154.993C229.011 154.993 229.339 154.862 229.557 154.6C229.83 154.283 229.939 153.78 229.939 153.081C229.939 152.382 229.819 151.88 229.557 151.563C229.328 151.301 229 151.17 228.541 151.17C228.094 151.17 227.766 151.29 227.537 151.541C227.263 151.847 227.143 152.361 227.143 153.081ZM239.57 155.943C238.718 155.943 238.063 155.67 237.593 155.189C237.09 154.676 236.861 153.955 236.861 153.071C236.861 152.229 237.101 151.509 237.593 150.984C238.073 150.482 238.729 150.22 239.559 150.22C240.422 150.22 241.154 150.547 241.612 151.126C242.049 151.672 242.268 152.503 242.235 153.442H238.172C238.194 154.458 238.652 154.971 239.559 154.971C240.356 154.971 240.771 154.632 240.891 153.966L242.147 154.064C241.864 155.321 240.968 155.943 239.57 155.943ZM238.183 152.47H240.913C240.891 152.164 240.793 151.847 240.607 151.618C240.367 151.323 240.039 151.192 239.559 151.192C239.046 151.192 238.674 151.367 238.456 151.672C238.281 151.913 238.205 152.208 238.183 152.47ZM243.577 155.812V150.351H244.866V151.17C245.15 150.515 245.729 150.22 246.504 150.22C247.214 150.22 247.673 150.395 248.033 150.777C248.47 151.225 248.503 151.88 248.503 152.513V155.812H247.192V152.612C247.192 152.109 247.17 151.771 246.886 151.498C246.646 151.257 246.384 151.236 246.056 151.236C245.587 151.236 244.866 151.498 244.866 152.819V155.812H243.577ZM252.301 155.943C251.023 155.943 249.92 155.386 249.877 154.075L251.089 153.933C251.1 154.643 251.591 155.015 252.312 155.015C253.044 155.015 253.426 154.753 253.426 154.294C253.426 153.813 252.749 153.726 251.93 153.518C250.958 153.267 250.029 152.961 250.029 151.858C250.029 150.689 251.089 150.22 252.181 150.22C253.372 150.22 254.387 150.657 254.508 151.956L253.317 152.153C253.284 151.476 252.869 151.148 252.181 151.148C251.701 151.148 251.253 151.334 251.253 151.76C251.253 152.186 251.755 152.317 252.454 152.47C253.481 152.699 254.65 152.929 254.65 154.217C254.65 155.539 253.503 155.943 252.301 155.943ZM256.884 155.812V154.25H258.425V155.812H256.884ZM262.507 155.943C261.502 155.943 260.618 155.408 260.618 154.305C260.618 153.136 261.59 152.808 262.584 152.623L264.211 152.317C264.211 151.956 264.211 151.694 264.058 151.476C263.905 151.268 263.632 151.17 263.184 151.17C262.431 151.17 262.081 151.432 262.07 152.197L260.803 152.033C260.836 151.388 261.076 150.93 261.491 150.646C261.895 150.362 262.496 150.22 263.261 150.22C264.67 150.22 265.467 150.831 265.467 152.022V154.829C265.467 155.189 265.543 155.506 265.653 155.768V155.812H264.353C264.309 155.604 264.276 155.375 264.276 155.037C263.993 155.572 263.403 155.943 262.507 155.943ZM261.939 154.294C261.939 154.763 262.31 154.993 262.78 154.993C263.709 154.993 264.211 154.523 264.211 153.715V153.202L262.791 153.507C262.289 153.628 261.939 153.791 261.939 154.294ZM267.063 157.996V150.351H268.352V151.094C268.723 150.515 269.335 150.22 270.012 150.22C271.41 150.22 272.448 151.301 272.448 153.081C272.448 154.807 271.454 155.943 270.045 155.943C269.357 155.943 268.767 155.681 268.352 155.124V157.996H267.063ZM268.319 153.06C268.319 154.163 268.592 154.982 269.652 154.982C270.099 154.982 270.427 154.862 270.635 154.621C270.93 154.316 271.039 153.78 271.039 153.071C271.039 151.814 270.722 151.17 269.684 151.17C269.247 151.17 268.92 151.312 268.69 151.596C268.439 151.913 268.319 152.415 268.319 153.06ZM273.644 157.996V150.351H274.933V151.094C275.304 150.515 275.916 150.22 276.593 150.22C277.991 150.22 279.029 151.301 279.029 153.081C279.029 154.807 278.035 155.943 276.626 155.943C275.938 155.943 275.348 155.681 274.933 155.124V157.996H273.644ZM274.9 153.06C274.9 154.163 275.173 154.982 276.233 154.982C276.681 154.982 277.008 154.862 277.216 154.621C277.511 154.316 277.62 153.78 277.62 153.071C277.62 151.814 277.303 151.17 276.266 151.17C275.829 151.17 275.501 151.312 275.272 151.596C275.02 151.913 274.9 152.415 274.9 153.06Z" fill="#F6F6F6" style="fill:#F6F6F6;fill:color(display-p3 0.9634 0.9634 0.9634);fill-opacity:1;"/>
<path d="M22.4483 108.299C22.7896 107.957 23.2527 107.766 23.7355 107.766H286.255C287.26 107.766 288.075 106.951 288.075 105.945V78.1846C288.075 77.1793 287.26 76.3643 286.255 76.3643H1.82037C0.815002 76.3643 0 77.1793 0 78.1846V105.945C0 106.951 0.815002 107.766 1.82037 107.766H9.55658C10.562 107.766 11.377 108.581 11.377 109.586V114.976C11.377 116.598 13.3378 117.41 14.4846 116.263L22.4483 108.299Z" fill="#F6F6F6" style="fill:#F6F6F6;fill:color(display-p3 0.9634 0.9634 0.9634);fill-opacity:1;"/>
<path d="M14.7092 95.5075C12.8634 95.5075 11.8913 94.1859 11.8913 91.6301C11.8913 89.3583 12.7978 87.7636 14.7092 87.7636C16.6316 87.7636 17.549 89.3692 17.549 91.6301C17.549 93.9238 16.6316 95.5075 14.7092 95.5075ZM13.2784 91.6301C13.2784 92.2527 13.3112 92.777 13.3986 93.192L15.4083 89.0197C15.2226 88.9105 14.9932 88.8559 14.7092 88.8559C14.1959 88.8559 13.8573 89.0415 13.6388 89.4129C13.3549 89.8607 13.2784 90.6034 13.2784 91.6301ZM13.9556 94.2296C14.1522 94.3716 14.3925 94.4371 14.7092 94.4371C15.157 94.4371 15.4738 94.2952 15.6922 94.0112C16.0527 93.5634 16.151 92.7551 16.151 91.6301C16.151 90.9529 16.1182 90.3959 16.009 89.9699L13.9556 94.2296ZM22.4458 94.0112L21.0259 92.5913L19.606 94.0112L18.8742 93.3012L20.305 91.8704L18.8742 90.4396L19.5951 89.7187L21.0259 91.1495L22.4676 89.7187L23.1776 90.4396L21.7468 91.8704L23.1776 93.3012L22.4458 94.0112ZM27.3381 95.5075C25.4923 95.5075 24.5202 94.1859 24.5202 91.6301C24.5202 89.3583 25.4267 87.7636 27.3381 87.7636C29.2605 87.7636 30.1779 89.3692 30.1779 91.6301C30.1779 93.9238 29.2605 95.5075 27.3381 95.5075ZM25.9073 91.6301C25.9073 92.2527 25.9401 92.777 26.0275 93.192L28.0372 89.0197C27.8515 88.9105 27.6221 88.8559 27.3381 88.8559C26.8248 88.8559 26.4862 89.0415 26.2677 89.4129C25.9838 89.8607 25.9073 90.6034 25.9073 91.6301ZM26.5845 94.2296C26.7811 94.3716 27.0214 94.4371 27.3381 94.4371C27.7859 94.4371 28.1027 94.2952 28.3211 94.0112C28.6816 93.5634 28.7799 92.7551 28.7799 91.6301C28.7799 90.9529 28.7471 90.3959 28.6379 89.9699L26.5845 94.2296ZM34.4084 95.5075C33.7094 95.5075 33.1087 95.1471 32.7919 94.6228V95.3765H31.4922V87.7309H32.7919V90.5925C33.1524 90.0682 33.7531 89.7733 34.4412 89.7733C35.8939 89.7733 36.8878 90.9202 36.8878 92.6459C36.8878 94.4153 35.8611 95.5075 34.4084 95.5075ZM32.7592 92.6568C32.7592 93.891 33.207 94.5573 34.1135 94.5573C34.5614 94.5573 34.889 94.4262 35.0965 94.175C35.3696 93.8583 35.4679 93.3449 35.4679 92.6459C35.4679 91.3898 35.1293 90.7345 34.1026 90.7345C33.633 90.7345 33.3053 90.9092 33.0978 91.1932C32.8466 91.5427 32.7592 92.067 32.7592 92.6568ZM40.5963 95.5075C38.7505 95.5075 37.7784 94.1859 37.7784 91.6301C37.7784 89.3583 38.6849 87.7636 40.5963 87.7636C42.5187 87.7636 43.4361 89.3692 43.4361 91.6301C43.4361 93.9238 42.5187 95.5075 40.5963 95.5075ZM39.1655 91.6301C39.1655 92.2527 39.1983 92.777 39.2857 93.192L41.2954 89.0197C41.1097 88.9105 40.8803 88.8559 40.5963 88.8559C40.083 88.8559 39.7444 89.0415 39.526 89.4129C39.242 89.8607 39.1655 90.6034 39.1655 91.6301ZM39.8427 94.2296C40.0393 94.3716 40.2796 94.4371 40.5963 94.4371C41.0442 94.4371 41.3609 94.2952 41.5794 94.0112C41.9398 93.5634 42.0381 92.7551 42.0381 91.6301C42.0381 90.9529 42.0053 90.3959 41.8961 89.9699L39.8427 94.2296ZM47.197 95.5075C45.5477 95.5075 44.4992 94.6337 44.4992 93.2139C44.4992 92.1981 44.9142 91.5755 45.7989 91.3134C45.1873 91.0294 44.805 90.527 44.805 89.7406C44.805 88.692 45.5259 87.7636 47.2079 87.7636C48.879 87.7636 49.589 88.692 49.589 89.7406C49.589 90.527 49.1958 91.0294 48.606 91.3024C49.5125 91.5646 49.8948 92.209 49.8948 93.2139C49.8948 94.7102 48.748 95.5075 47.197 95.5075ZM45.8208 93.1592C45.8208 93.9675 46.3341 94.4808 47.197 94.4808C48.0708 94.4808 48.5732 93.9675 48.5732 93.1592C48.5732 92.3947 48.0708 91.9032 47.197 91.9032C46.3669 91.9032 45.8208 92.3619 45.8208 93.1592ZM46.0938 89.8389C46.0938 90.4614 46.4652 90.8983 47.197 90.8983C47.9179 90.8983 48.3001 90.4614 48.3001 89.8389C48.3001 89.1835 47.9288 88.7903 47.197 88.7903C46.4434 88.7903 46.0938 89.1944 46.0938 89.8389ZM53.343 95.5075C51.9122 95.5075 50.8746 94.4262 50.8746 92.6459C50.8746 90.9202 51.8576 89.7842 53.3212 89.7842C54.0311 89.7842 54.5882 90.0573 54.9595 90.5816V87.7309H56.2483V95.3765H54.9595V94.601C54.6428 95.2017 54.0639 95.5075 53.343 95.5075ZM52.2835 92.6459C52.2835 93.902 52.5784 94.5573 53.6379 94.5573C54.042 94.5573 54.3588 94.4153 54.5772 94.1641C54.8612 93.8364 54.9923 93.334 54.9923 92.6568C54.9923 91.5646 54.6974 90.7454 53.6598 90.7454C53.1573 90.7454 52.8187 90.8983 52.6112 91.1932C52.3709 91.51 52.2835 92.0015 52.2835 92.6459ZM57.1826 95.3765L59.804 87.7309H61.3003L63.9108 95.3765H62.5018L61.8792 93.3668H59.2251L58.6025 95.3765H57.1826ZM59.5746 92.2199H61.5188L60.9399 90.3741C60.8197 90.0245 60.6559 89.4347 60.5467 89.0197H60.5248C60.4047 89.4893 60.2846 89.8935 60.1426 90.3741L59.5746 92.2199ZM65.4045 95.3765C65.5684 93.0063 66.464 90.6253 68.1679 88.8668H64.5089V87.7309H69.5441V88.8668C67.9167 90.4068 66.9227 92.8534 66.8026 95.3765H65.4045ZM73.4283 95.5075C71.5496 95.5075 70.5557 94.1641 70.5557 91.5427C70.5557 89.2272 71.4841 87.5998 73.4283 87.5998C75.3943 87.5998 76.3336 89.2381 76.3336 91.5427C76.3336 93.891 75.3943 95.5075 73.4283 95.5075ZM71.9756 91.5427C71.9756 92.1872 72.0084 92.7223 72.0957 93.1483L74.1491 88.8777C73.9525 88.7685 73.7232 88.7139 73.4283 88.7139C72.904 88.7139 72.5654 88.8995 72.336 89.2818C72.052 89.7406 71.9756 90.4942 71.9756 91.5427ZM72.6637 94.2078C72.8603 94.3498 73.1115 94.4153 73.4283 94.4153C73.887 94.4153 74.2147 94.2733 74.4331 93.9784C74.8045 93.5197 74.9028 92.7005 74.9028 91.5427C74.9028 90.8546 74.87 90.2867 74.7608 89.8389L72.6637 94.2078ZM80.1478 95.5075C77.8432 95.5075 77.3735 93.5197 77.3735 91.7721C77.3735 89.2927 78.1271 87.5998 80.3116 87.5998C81.7861 87.5998 82.4851 88.4736 82.638 89.6204L81.3383 89.8061C81.2946 89.2163 81.0215 88.692 80.2679 88.692C78.9463 88.692 78.6623 90.0355 78.6514 91.4007C78.99 90.7345 79.6672 90.3741 80.4536 90.3741C81.9063 90.3741 82.8237 91.4663 82.8237 92.9189C82.8237 94.1422 82.1138 95.5075 80.1478 95.5075ZM78.8152 92.9626C78.8152 93.7054 79.1648 94.4153 80.1259 94.4153C81.0871 94.4153 81.4912 93.9129 81.4912 92.908C81.4912 92.0124 81.1089 91.4881 80.1805 91.4881C79.2958 91.4881 78.8152 92.0998 78.8152 92.9626ZM86.6313 95.5075C84.9493 95.5075 83.8789 94.6228 83.8789 93.1702C83.8789 92.1216 84.3049 91.4991 85.2005 91.226C84.578 90.942 84.1847 90.4177 84.1847 89.6204C84.1847 88.55 84.9275 87.5998 86.6423 87.5998C88.3461 87.5998 89.0779 88.55 89.0779 89.6204C89.0779 90.4177 88.6738 90.9311 88.0622 91.2151C88.9906 91.4772 89.3838 92.1325 89.3838 93.1702C89.3838 94.6993 88.2151 95.5075 86.6313 95.5075ZM85.2224 93.1155C85.2224 93.9347 85.7466 94.459 86.6313 94.459C87.527 94.459 88.0403 93.9347 88.0403 93.1155C88.0403 92.3291 87.527 91.8267 86.6313 91.8267C85.7794 91.8267 85.2224 92.2964 85.2224 93.1155ZM85.5063 89.7187C85.5063 90.3522 85.8886 90.8 86.6313 90.8C87.3631 90.8 87.7563 90.3522 87.7563 89.7187C87.7563 89.0525 87.385 88.6483 86.6313 88.6483C85.8668 88.6483 85.5063 89.0634 85.5063 89.7187ZM93.6171 95.5075C92.9181 95.5075 92.3173 95.1471 92.0006 94.6228V95.3765H90.7008V87.7309H92.0006V90.5925C92.361 90.0682 92.9618 89.7733 93.6499 89.7733C95.1025 89.7733 96.0964 90.9202 96.0964 92.6459C96.0964 94.4153 95.0698 95.5075 93.6171 95.5075ZM91.9678 92.6568C91.9678 93.891 92.4156 94.5573 93.3222 94.5573C93.77 94.5573 94.0977 94.4262 94.3052 94.175C94.5783 93.8583 94.6766 93.3449 94.6766 92.6459C94.6766 91.3898 94.338 90.7345 93.3113 90.7345C92.8416 90.7345 92.5139 90.9092 92.3064 91.1932C92.0552 91.5427 91.9678 92.067 91.9678 92.6568ZM97.9154 95.3765C98.0793 93.0063 98.9749 90.6253 100.679 88.8668H97.0198V87.7309H102.055V88.8668C100.428 90.4068 99.4336 92.8534 99.3135 95.3765H97.9154ZM105.808 95.5075C104.071 95.5075 103.143 94.459 103.121 93.0063L104.465 92.8097C104.454 93.8037 104.934 94.4153 105.808 94.4153C106.638 94.4153 107.141 93.9784 107.141 93.1592C107.141 92.2527 106.496 91.9578 105.863 91.9578H105.142V90.8H105.721C106.256 90.8 106.868 90.527 106.868 89.7515C106.868 89.1071 106.496 88.6811 105.797 88.6811C104.792 88.6811 104.574 89.5003 104.596 90.1119L103.23 89.9044C103.296 88.4845 104.323 87.5998 105.797 87.5998C107.141 87.5998 108.211 88.3207 108.211 89.7296C108.211 90.3959 107.851 90.9639 107.261 91.2697C108.091 91.5537 108.517 92.3073 108.517 93.1483C108.517 94.7102 107.37 95.5075 105.808 95.5075ZM109.16 95.3765L111.781 87.7309H113.277L115.888 95.3765H114.479L113.856 93.3668H111.202L110.579 95.3765H109.16ZM111.552 92.2199H113.496L112.917 90.3741C112.797 90.0245 112.633 89.4347 112.524 89.0197H112.502C112.382 89.4893 112.261 89.8935 112.119 90.3741L111.552 92.2199ZM119.181 95.5075C117.674 95.5075 116.603 94.601 116.571 93.0719L117.903 92.8643C117.903 93.8692 118.438 94.4153 119.203 94.4153C120.153 94.4153 120.623 93.8583 120.623 92.8643C120.623 91.925 120.055 91.4772 119.214 91.4772C118.668 91.4772 118.242 91.6738 117.958 92.0452L116.756 91.8486L117.357 87.7309H121.562V88.8668H118.46L118.176 90.8546C118.493 90.527 118.952 90.3413 119.541 90.3413C120.754 90.3413 121.955 91.1168 121.955 92.908C121.955 94.3607 121.027 95.5075 119.181 95.5075ZM123.92 95.3765C124.084 93.0063 124.979 90.6253 126.683 88.8668H123.024V87.7309H128.059V88.8668C126.432 90.4068 125.438 92.8534 125.318 95.3765H123.92ZM131.692 95.5075C130.229 95.5075 129.475 94.6447 129.333 93.4323L130.6 93.2139C130.666 93.8583 130.961 94.4153 131.747 94.4153C132.806 94.4153 133.287 93.4978 133.32 91.7393C132.927 92.3728 132.348 92.777 131.55 92.777C130.098 92.777 129.147 91.7066 129.147 90.2211C129.147 89.0197 129.847 87.5998 131.834 87.5998C134.095 87.5998 134.598 89.6532 134.598 91.3352C134.598 93.8037 133.866 95.5075 131.692 95.5075ZM130.48 90.243C130.48 91.1495 130.862 91.6629 131.791 91.6629C132.675 91.6629 133.156 91.0294 133.156 90.1665C133.156 89.402 132.806 88.7029 131.845 88.7029C130.873 88.7029 130.48 89.2054 130.48 90.243ZM135.98 95.3765V87.7309H138.492C139.912 87.7309 141.474 87.9602 141.474 89.8061C141.474 90.5925 141.081 91.1605 140.458 91.4554C141.267 91.7612 141.736 92.3291 141.736 93.2575C141.736 95.1689 140.207 95.3765 138.613 95.3765H135.98ZM137.335 94.2842H138.569C139.628 94.2842 140.415 94.2515 140.415 93.192C140.415 92.0452 139.454 92.0233 138.624 92.0233H137.335V94.2842ZM137.335 90.9311H138.405C139.344 90.9311 140.142 90.9092 140.142 89.8826C140.142 88.8668 139.333 88.834 138.416 88.834H137.335V90.9311ZM145.041 95.5075C143.61 95.5075 142.573 94.4262 142.573 92.6459C142.573 90.9202 143.556 89.7842 145.019 89.7842C145.729 89.7842 146.286 90.0573 146.658 90.5816V87.7309H147.947V95.3765H146.658V94.601C146.341 95.2017 145.762 95.5075 145.041 95.5075ZM143.982 92.6459C143.982 93.902 144.277 94.5573 145.336 94.5573C145.74 94.5573 146.057 94.4153 146.275 94.1641C146.559 93.8364 146.69 93.334 146.69 92.6568C146.69 91.5646 146.396 90.7454 145.358 90.7454C144.856 90.7454 144.517 90.8983 144.309 91.1932C144.069 91.51 143.982 92.0015 143.982 92.6459ZM151.863 95.5075C150.355 95.5075 149.285 94.601 149.252 93.0719L150.585 92.8643C150.585 93.8692 151.12 94.4153 151.884 94.4153C152.835 94.4153 153.304 93.8583 153.304 92.8643C153.304 91.925 152.736 91.4772 151.895 91.4772C151.349 91.4772 150.923 91.6738 150.639 92.0452L149.438 91.8486L150.039 87.7309H154.244V88.8668H151.142L150.858 90.8546C151.175 90.527 151.633 90.3413 152.223 90.3413C153.435 90.3413 154.637 91.1168 154.637 92.908C154.637 94.3607 153.708 95.5075 151.863 95.5075ZM156.132 95.3765V87.7309H161.2V88.8668H157.497V90.9529H160.807V92.0779H157.497V94.2405H161.2V95.3765H156.132ZM165.093 95.5075C163.411 95.5075 162.34 94.6228 162.34 93.1702C162.34 92.1216 162.766 91.4991 163.662 91.226C163.039 90.942 162.646 90.4177 162.646 89.6204C162.646 88.55 163.389 87.5998 165.104 87.5998C166.807 87.5998 167.539 88.55 167.539 89.6204C167.539 90.4177 167.135 90.9311 166.523 91.2151C167.452 91.4772 167.845 92.1325 167.845 93.1702C167.845 94.6993 166.676 95.5075 165.093 95.5075ZM163.684 93.1155C163.684 93.9347 164.208 94.459 165.093 94.459C165.988 94.459 166.502 93.9347 166.502 93.1155C166.502 92.3291 165.988 91.8267 165.093 91.8267C164.241 91.8267 163.684 92.2964 163.684 93.1155ZM163.968 89.7187C163.968 90.3522 164.35 90.8 165.093 90.8C165.824 90.8 166.218 90.3522 166.218 89.7187C166.218 89.0525 165.846 88.6483 165.093 88.6483C164.328 88.6483 163.968 89.0634 163.968 89.7187ZM170.888 95.5075C169.883 95.5075 168.998 94.9723 168.998 93.8692C168.998 92.7005 169.97 92.3728 170.964 92.1872L172.592 91.8813C172.592 91.5209 172.592 91.2588 172.439 91.0403C172.286 90.8328 172.013 90.7345 171.565 90.7345C170.811 90.7345 170.462 90.9966 170.451 91.7612L169.184 91.5974C169.217 90.9529 169.457 90.4942 169.872 90.2102C170.276 89.9262 170.877 89.7842 171.642 89.7842C173.05 89.7842 173.848 90.3959 173.848 91.5864V94.3935C173.848 94.7539 173.924 95.0706 174.034 95.3328V95.3765H172.734C172.69 95.1689 172.657 94.9396 172.657 94.601C172.373 95.1362 171.784 95.5075 170.888 95.5075ZM170.32 93.8583C170.32 94.3279 170.691 94.5573 171.161 94.5573C172.089 94.5573 172.592 94.0876 172.592 93.2794V92.766L171.172 93.0719C170.669 93.192 170.32 93.3558 170.32 93.8583ZM177.923 95.5075C176.274 95.5075 175.225 94.6337 175.225 93.2139C175.225 92.1981 175.64 91.5755 176.525 91.3134C175.914 91.0294 175.531 90.527 175.531 89.7406C175.531 88.692 176.252 87.7636 177.934 87.7636C179.605 87.7636 180.315 88.692 180.315 89.7406C180.315 90.527 179.922 91.0294 179.332 91.3024C180.239 91.5646 180.621 92.209 180.621 93.2139C180.621 94.7102 179.474 95.5075 177.923 95.5075ZM176.547 93.1592C176.547 93.9675 177.06 94.4808 177.923 94.4808C178.797 94.4808 179.299 93.9675 179.299 93.1592C179.299 92.3947 178.797 91.9032 177.923 91.9032C177.093 91.9032 176.547 92.3619 176.547 93.1592ZM176.82 89.8389C176.82 90.4614 177.191 90.8983 177.923 90.8983C178.644 90.8983 179.026 90.4614 179.026 89.8389C179.026 89.1835 178.655 88.7903 177.923 88.7903C177.17 88.7903 176.82 89.1944 176.82 89.8389ZM181.677 95.3765C181.776 93.5415 182.671 92.6459 183.905 91.8704C184.735 91.3461 185.533 90.9311 185.533 89.9809C185.533 89.2927 185.205 88.8449 184.484 88.8449C183.436 88.8449 183.294 89.7187 183.305 90.3522L181.95 90.1556C181.928 89.0088 182.595 87.7636 184.528 87.7636C185.948 87.7636 186.876 88.5937 186.876 90.0136C186.876 91.3134 186.068 91.9469 184.943 92.6459C184.124 93.1483 183.447 93.5524 183.261 94.2624H186.887V95.3765H181.677ZM190.623 95.5075C189.192 95.5075 188.449 94.6556 188.318 93.476L189.552 93.2575C189.618 93.891 189.913 94.4371 190.677 94.4371C191.715 94.4371 192.185 93.5306 192.217 91.8049C191.835 92.4384 191.267 92.8316 190.481 92.8316C189.061 92.8316 188.132 91.783 188.132 90.3304C188.132 89.1617 188.821 87.7636 190.765 87.7636C192.971 87.7636 193.462 89.7733 193.462 91.4226C193.462 93.8364 192.753 95.5075 190.623 95.5075ZM189.432 90.3522C189.432 91.2369 189.814 91.7393 190.721 91.7393C191.584 91.7393 192.054 91.1277 192.054 90.2758C192.054 89.533 191.715 88.8449 190.776 88.8449C189.825 88.8449 189.432 89.3364 189.432 90.3522ZM197.37 95.5075C195.524 95.5075 194.552 94.1859 194.552 91.6301C194.552 89.3583 195.458 87.7636 197.37 87.7636C199.292 87.7636 200.209 89.3692 200.209 91.6301C200.209 93.9238 199.292 95.5075 197.37 95.5075ZM195.939 91.6301C195.939 92.2527 195.972 92.777 196.059 93.192L198.069 89.0197C197.883 88.9105 197.654 88.8559 197.37 88.8559C196.856 88.8559 196.518 89.0415 196.299 89.4129C196.015 89.8607 195.939 90.6034 195.939 91.6301ZM196.616 94.2296C196.813 94.3716 197.053 94.4371 197.37 94.4371C197.817 94.4371 198.134 94.2952 198.353 94.0112C198.713 93.5634 198.811 92.7551 198.811 91.6301C198.811 90.9529 198.779 90.3959 198.669 89.9699L196.616 94.2296ZM202.507 95.3765V90.9529H201.447V89.9153H202.507V89.1398C202.507 88.1896 203.064 87.6762 204.342 87.6762C204.691 87.6762 205.041 87.7199 205.237 87.7527L205.215 88.8012C204.953 88.7576 204.691 88.7357 204.506 88.7357C204.003 88.7357 203.796 88.834 203.796 89.1944V89.9153H205.292V90.9529H203.796V95.3765H202.507ZM206.384 90.9529V89.9153H207.444V89.1398C207.444 88.1896 208.001 87.6762 209.279 87.6762C209.628 87.6762 209.978 87.7199 210.174 87.7527L210.152 88.8012C209.89 88.7576 209.628 88.7357 209.442 88.7357C208.94 88.7357 208.732 88.834 208.732 89.1944V89.9153H210.229V90.9529H208.732V95.3765H207.444V90.9529H206.384ZM214.082 95.5075C212.433 95.5075 211.384 94.6337 211.384 93.2139C211.384 92.1981 211.799 91.5755 212.684 91.3134C212.072 91.0294 211.69 90.527 211.69 89.7406C211.69 88.692 212.411 87.7636 214.093 87.7636C215.764 87.7636 216.474 88.692 216.474 89.7406C216.474 90.527 216.081 91.0294 215.491 91.3024C216.398 91.5646 216.78 92.209 216.78 93.2139C216.78 94.7102 215.633 95.5075 214.082 95.5075ZM212.706 93.1592C212.706 93.9675 213.219 94.4808 214.082 94.4808C214.956 94.4808 215.458 93.9675 215.458 93.1592C215.458 92.3947 214.956 91.9032 214.082 91.9032C213.252 91.9032 212.706 92.3619 212.706 93.1592ZM212.979 89.8389C212.979 90.4614 213.35 90.8983 214.082 90.8983C214.803 90.8983 215.185 90.4614 215.185 89.8389C215.185 89.1835 214.814 88.7903 214.082 88.7903C213.328 88.7903 212.979 89.1944 212.979 89.8389ZM219.868 95.5075C218.863 95.5075 217.978 94.9723 217.978 93.8692C217.978 92.7005 218.95 92.3728 219.944 92.1872L221.571 91.8813C221.571 91.5209 221.571 91.2588 221.419 91.0403C221.266 90.8328 220.993 90.7345 220.545 90.7345C219.791 90.7345 219.442 90.9966 219.431 91.7612L218.164 91.5974C218.196 90.9529 218.437 90.4942 218.852 90.2102C219.256 89.9262 219.857 89.7842 220.621 89.7842C222.03 89.7842 222.828 90.3959 222.828 91.5864V94.3935C222.828 94.7539 222.904 95.0706 223.013 95.3328V95.3765H221.713C221.67 95.1689 221.637 94.9396 221.637 94.601C221.353 95.1362 220.763 95.5075 219.868 95.5075ZM219.3 93.8583C219.3 94.3279 219.671 94.5573 220.141 94.5573C221.069 94.5573 221.571 94.0876 221.571 93.2794V92.766L220.152 93.0719C219.649 93.192 219.3 93.3558 219.3 93.8583ZM225.397 95.3765V90.9529H224.337V89.9153H225.397V89.1398C225.397 88.1896 225.954 87.6762 227.232 87.6762C227.581 87.6762 227.931 87.7199 228.127 87.7527L228.105 88.8012C227.843 88.7576 227.581 88.7357 227.395 88.7357C226.893 88.7357 226.685 88.834 226.685 89.1944V89.9153H228.182V90.9529H226.685V95.3765H225.397ZM231.641 95.5075C230.21 95.5075 229.172 94.4262 229.172 92.6459C229.172 90.9202 230.155 89.7842 231.619 89.7842C232.329 89.7842 232.886 90.0573 233.257 90.5816V87.7309H234.546V95.3765H233.257V94.601C232.941 95.2017 232.362 95.5075 231.641 95.5075ZM230.581 92.6459C230.581 93.902 230.876 94.5573 231.936 94.5573C232.34 94.5573 232.657 94.4153 232.875 94.1641C233.159 93.8364 233.29 93.334 233.29 92.6568C233.29 91.5646 232.995 90.7454 231.958 90.7454C231.455 90.7454 231.117 90.8983 230.909 91.1932C230.669 91.51 230.581 92.0015 230.581 92.6459ZM238.528 95.5075C236.835 95.5075 235.928 94.4808 235.907 93.0609L237.217 92.8643C237.206 93.8364 237.676 94.4371 238.528 94.4371C239.347 94.4371 239.839 94.0112 239.839 93.2029C239.839 92.3182 239.205 92.0342 238.582 92.0342H237.883V90.8983H238.451C238.976 90.8983 239.565 90.6362 239.565 89.8716C239.565 89.2381 239.205 88.8231 238.517 88.8231C237.534 88.8231 237.326 89.6313 237.348 90.2211L236.005 90.0245C236.07 88.6374 237.075 87.7636 238.517 87.7636C239.839 87.7636 240.887 88.4736 240.887 89.8498C240.887 90.5051 240.538 91.0512 239.959 91.3571C240.767 91.6301 241.182 92.3728 241.182 93.192C241.182 94.7211 240.057 95.5075 238.528 95.5075ZM243.19 95.3765C243.343 93.05 244.228 90.7236 245.888 89.0088H242.317V87.8947H247.243V89.0088C245.648 90.516 244.676 92.908 244.556 95.3765H243.19ZM251.521 95.5075C250.822 95.5075 250.221 95.1471 249.905 94.6228V95.3765H248.605V87.7309H249.905V90.5925C250.265 90.0682 250.866 89.7733 251.554 89.7733C253.006 89.7733 254 90.9202 254 92.6459C254 94.4153 252.974 95.5075 251.521 95.5075ZM249.872 92.6568C249.872 93.891 250.32 94.5573 251.226 94.5573C251.674 94.5573 252.002 94.4262 252.209 94.175C252.482 93.8583 252.581 93.3449 252.581 92.6459C252.581 91.3898 252.242 90.7345 251.215 90.7345C250.746 90.7345 250.418 90.9092 250.21 91.1932C249.959 91.5427 249.872 92.067 249.872 92.6568ZM257.742 95.5075C256.005 95.5075 254.978 94.4371 254.978 92.6459C254.978 90.9639 256.005 89.7842 257.742 89.7842C259.194 89.7842 259.981 90.6034 260.199 91.7175L258.976 91.9359C258.845 91.3243 258.572 90.7673 257.742 90.7673C257.239 90.7673 256.923 90.9202 256.715 91.1932C256.475 91.5209 256.387 92.0233 256.387 92.6459C256.387 93.8255 256.66 94.5245 257.742 94.5245C258.441 94.5245 258.812 94.1859 258.976 93.5088L260.221 93.6398C260.046 94.743 259.107 95.5075 257.742 95.5075ZM263.925 95.5075C262.189 95.5075 261.26 94.459 261.238 93.0063L262.582 92.8097C262.571 93.8037 263.052 94.4153 263.925 94.4153C264.755 94.4153 265.258 93.9784 265.258 93.1592C265.258 92.2527 264.613 91.9578 263.98 91.9578H263.259V90.8H263.838C264.373 90.8 264.985 90.527 264.985 89.7515C264.985 89.1071 264.613 88.6811 263.914 88.6811C262.91 88.6811 262.691 89.5003 262.713 90.1119L261.348 89.9044C261.413 88.4845 262.44 87.5998 263.914 87.5998C265.258 87.5998 266.328 88.3207 266.328 89.7296C266.328 90.3959 265.968 90.9639 265.378 91.2697C266.208 91.5537 266.634 92.3073 266.634 93.1483C266.634 94.7102 265.487 95.5075 263.925 95.5075ZM267.626 95.3765C267.735 93.4978 268.642 92.5804 269.909 91.794C270.76 91.2588 271.569 90.8328 271.569 89.8607C271.569 89.1617 271.241 88.7029 270.498 88.7029C269.428 88.7029 269.286 89.5986 269.297 90.243L267.91 90.0355C267.888 88.8668 268.565 87.5998 270.542 87.5998C271.995 87.5998 272.945 88.4408 272.945 89.8935C272.945 91.226 272.115 91.8704 270.968 92.5804C270.127 93.1046 269.45 93.5197 269.253 94.2405H272.956V95.3765H267.626ZM273.719 95.3765L276.341 87.7309H277.837L280.447 95.3765H279.038L278.416 93.3668H275.762L275.139 95.3765H273.719ZM276.111 92.2199H278.055L277.477 90.3741C277.356 90.0245 277.193 89.4347 277.083 89.0197H277.061C276.941 89.4893 276.821 89.8935 276.679 90.3741L276.111 92.2199Z" fill="#4A5C63" style="fill:#4A5C63;fill:color(display-p3 0.2902 0.3608 0.3882);fill-opacity:1;"/>
<path d="M22.458 241.003C22.7994 240.662 23.2624 240.47 23.7452 240.47H208.897C209.903 240.47 210.718 239.655 210.718 238.649V198.601C210.718 197.595 209.903 196.78 208.897 196.78H1.82918C0.823807 196.78 0.00878906 197.595 0.00878906 198.601V238.649C0.00878906 239.655 0.823807 240.47 1.82918 240.47H9.56633C10.5717 240.47 11.3867 241.285 11.3867 242.29V247.679C11.3867 249.301 13.3475 250.113 14.4943 248.967L22.458 241.003Z" fill="#F6F6F6" style="fill:#F6F6F6;fill:color(display-p3 0.9634 0.9634 0.9634);fill-opacity:1;"/>
<path d="M14.0173 215.792V209.305H11.6799V208.147H17.7309V209.305H15.3826V215.792H14.0173ZM18.8493 215.792V208.147H20.1381V211.14C20.433 210.506 21.0337 210.2 21.7655 210.2C22.4755 210.2 22.9451 210.364 23.3274 210.779C23.7643 211.238 23.7752 211.85 23.7752 212.494V215.792H22.4646V212.559C22.4646 212.057 22.4427 211.751 22.1697 211.489C21.9185 211.238 21.6563 211.216 21.3396 211.216C20.8699 211.216 20.149 211.456 20.149 212.756V215.792H18.8493ZM25.1927 215.792V214.755H26.2521V211.369H25.3674V210.331H27.5519V214.755H28.524V215.792H25.1927ZM26.1975 209.468V208.049H27.5191V209.468H26.1975ZM32.2669 215.924C30.989 215.924 29.8858 215.367 29.8422 214.056L31.0545 213.914C31.0654 214.624 31.557 214.995 32.2778 214.995C33.0096 214.995 33.3919 214.733 33.3919 214.274C33.3919 213.794 32.7147 213.706 31.8955 213.499C30.9235 213.248 29.9951 212.942 29.9951 211.839C29.9951 210.67 31.0545 210.2 32.1468 210.2C33.3373 210.2 34.3531 210.637 34.4732 211.937L33.2827 212.134C33.2499 211.456 32.8349 211.129 32.1468 211.129C31.6662 211.129 31.2184 211.314 31.2184 211.74C31.2184 212.166 31.7208 212.297 32.4198 212.45C33.4465 212.68 34.6152 212.909 34.6152 214.198C34.6152 215.519 33.4684 215.924 32.2669 215.924ZM40.5095 215.792V214.755H41.5689V211.369H40.6842V210.331H42.8687V214.755H43.8408V215.792H40.5095ZM41.5143 209.468V208.049H42.8359V209.468H41.5143ZM47.5837 215.924C46.3058 215.924 45.2027 215.367 45.159 214.056L46.3713 213.914C46.3823 214.624 46.8738 214.995 47.5946 214.995C48.3264 214.995 48.7087 214.733 48.7087 214.274C48.7087 213.794 48.0315 213.706 47.2124 213.499C46.2403 213.248 45.3119 212.942 45.3119 211.839C45.3119 210.67 46.3713 210.2 47.4636 210.2C48.6541 210.2 49.6699 210.637 49.79 211.937L48.5995 212.134C48.5667 211.456 48.1517 211.129 47.4636 211.129C46.983 211.129 46.5352 211.314 46.5352 211.74C46.5352 212.166 47.0376 212.297 47.7366 212.45C48.7633 212.68 49.932 212.909 49.932 214.198C49.932 215.519 48.7852 215.924 47.5837 215.924ZM58.2074 215.924C56.9294 215.924 55.8263 215.367 55.7826 214.056L56.995 213.914C57.0059 214.624 57.4974 214.995 58.2183 214.995C58.9501 214.995 59.3323 214.733 59.3323 214.274C59.3323 213.794 58.6552 213.706 57.836 213.499C56.8639 213.248 55.9355 212.942 55.9355 211.839C55.9355 210.67 56.995 210.2 58.0872 210.2C59.2777 210.2 60.2935 210.637 60.4137 211.937L59.2231 212.134C59.1904 211.456 58.7753 211.129 58.0872 211.129C57.6066 211.129 57.1588 211.314 57.1588 211.74C57.1588 212.166 57.6612 212.297 58.3603 212.45C59.387 212.68 60.5556 212.909 60.5556 214.198C60.5556 215.519 59.4088 215.924 58.2074 215.924ZM64.4944 215.924C62.7468 215.924 61.7092 214.842 61.7092 213.062C61.7092 211.402 62.7578 210.2 64.4944 210.2C66.2092 210.2 67.2796 211.413 67.2796 213.062C67.2796 214.777 66.1764 215.924 64.4944 215.924ZM63.0964 213.062C63.0964 213.783 63.2165 214.296 63.5005 214.602C63.7189 214.853 64.0466 214.973 64.4944 214.973C64.9641 214.973 65.2917 214.842 65.5102 214.58C65.7832 214.263 65.8925 213.761 65.8925 213.062C65.8925 212.363 65.7723 211.86 65.5102 211.544C65.2808 211.282 64.9531 211.151 64.4944 211.151C64.0466 211.151 63.7189 211.271 63.4896 211.522C63.2165 211.828 63.0964 212.341 63.0964 213.062ZM72.8687 215.792V210.331H74.092V211.096C74.1685 210.899 74.2886 210.703 74.4525 210.561C74.6928 210.342 74.9986 210.2 75.4573 210.2C76.1782 210.2 76.6369 210.593 76.8117 211.205C76.91 210.943 77.052 210.725 77.2595 210.55C77.5216 210.331 77.8384 210.2 78.319 210.2C79.3238 210.2 79.9136 210.812 79.9136 212.188V215.792H78.6685V212.527C78.6685 212.035 78.6576 211.664 78.45 211.434C78.2862 211.26 78.0896 211.216 77.8821 211.216C77.6309 211.216 77.4343 211.303 77.2813 211.467C77.0957 211.697 77.0083 212.024 77.0083 212.625V215.792H75.7631V212.527C75.7631 212.024 75.7522 211.653 75.5447 211.424C75.359 211.238 75.1624 211.216 74.9549 211.216C74.7365 211.216 74.5289 211.292 74.3869 211.445C74.2013 211.664 74.1139 212.002 74.1139 212.625V215.792H72.8687ZM83.2564 215.924C82.5573 215.924 82.0767 215.738 81.6835 215.323C81.2467 214.864 81.2139 214.187 81.2139 213.532V210.331H82.5355V213.466C82.5355 213.936 82.5355 214.34 82.8085 214.624C83.0598 214.886 83.3547 214.908 83.6714 214.908C84.1738 214.908 84.851 214.646 84.851 213.346V210.331H86.1289V215.792H84.8619V214.995C84.567 215.596 84.01 215.924 83.2564 215.924ZM90.2878 215.924C88.5512 215.924 87.5245 214.853 87.5245 213.062C87.5245 211.38 88.5512 210.2 90.2878 210.2C91.7405 210.2 92.5269 211.019 92.7454 212.134L91.5221 212.352C91.391 211.74 91.1179 211.183 90.2878 211.183C89.7854 211.183 89.4687 211.336 89.2611 211.609C89.0208 211.937 88.9335 212.439 88.9335 213.062C88.9335 214.242 89.2065 214.941 90.2878 214.941C90.9869 214.941 91.3582 214.602 91.5221 213.925L92.7672 214.056C92.5924 215.159 91.6531 215.924 90.2878 215.924ZM94.0467 215.792V208.147H95.3356V211.14C95.6305 210.506 96.2312 210.2 96.963 210.2C97.6729 210.2 98.1426 210.364 98.5249 210.779C98.9618 211.238 98.9727 211.85 98.9727 212.494V215.792H97.662V212.559C97.662 212.057 97.6402 211.751 97.3671 211.489C97.1159 211.238 96.8538 211.216 96.537 211.216C96.0674 211.216 95.3465 211.456 95.3465 212.756V215.792H94.0467ZM107.304 215.924C106.026 215.924 104.923 215.367 104.88 214.056L106.092 213.914C106.103 214.624 106.594 214.995 107.315 214.995C108.047 214.995 108.429 214.733 108.429 214.274C108.429 213.794 107.752 213.706 106.933 213.499C105.961 213.248 105.033 212.942 105.033 211.839C105.033 210.67 106.092 210.2 107.184 210.2C108.375 210.2 109.391 210.637 109.511 211.937L108.32 212.134C108.287 211.456 107.872 211.129 107.184 211.129C106.704 211.129 106.256 211.314 106.256 211.74C106.256 212.166 106.758 212.297 107.457 212.45C108.484 212.68 109.653 212.909 109.653 214.198C109.653 215.519 108.506 215.924 107.304 215.924ZM111.014 215.792V214.755H112.073V211.369H111.188V210.331H113.373V214.755H114.345V215.792H111.014ZM112.019 209.468V208.049H113.34V209.468H112.019ZM115.609 215.792V210.331H116.832V211.096C116.908 210.899 117.029 210.703 117.192 210.561C117.433 210.342 117.738 210.2 118.197 210.2C118.918 210.2 119.377 210.593 119.552 211.205C119.65 210.943 119.792 210.725 119.999 210.55C120.262 210.331 120.578 210.2 121.059 210.2C122.064 210.2 122.653 210.812 122.653 212.188V215.792H121.408V212.527C121.408 212.035 121.397 211.664 121.19 211.434C121.026 211.26 120.829 211.216 120.622 211.216C120.371 211.216 120.174 211.303 120.021 211.467C119.836 211.697 119.748 212.024 119.748 212.625V215.792H118.503V212.527C118.503 212.024 118.492 211.653 118.285 211.424C118.099 211.238 117.902 211.216 117.695 211.216C117.476 211.216 117.269 211.292 117.127 211.445C116.941 211.664 116.854 212.002 116.854 212.625V215.792H115.609ZM123.965 217.977V210.331H125.254V211.074C125.625 210.495 126.237 210.2 126.914 210.2C128.312 210.2 129.349 211.282 129.349 213.062C129.349 214.788 128.355 215.924 126.946 215.924C126.258 215.924 125.669 215.661 125.254 215.104V217.977H123.965ZM125.221 213.04C125.221 214.143 125.494 214.962 126.553 214.962C127.001 214.962 127.329 214.842 127.536 214.602C127.831 214.296 127.94 213.761 127.94 213.051C127.94 211.795 127.624 211.151 126.586 211.151C126.149 211.151 125.821 211.292 125.592 211.576C125.341 211.893 125.221 212.396 125.221 213.04ZM130.48 215.792V214.755H131.551V209.184H130.666V208.147H132.839V214.755H133.812V215.792H130.48ZM137.707 215.924C136.855 215.924 136.2 215.65 135.73 215.17C135.228 214.657 134.999 213.936 134.999 213.051C134.999 212.21 135.239 211.489 135.73 210.965C136.211 210.462 136.866 210.2 137.696 210.2C138.559 210.2 139.291 210.528 139.75 211.107C140.187 211.653 140.405 212.483 140.372 213.422H136.309C136.331 214.438 136.79 214.951 137.696 214.951C138.494 214.951 138.909 214.613 139.029 213.947L140.285 214.045C140.001 215.301 139.105 215.924 137.707 215.924ZM136.32 212.45H139.051C139.029 212.144 138.931 211.828 138.745 211.598C138.505 211.303 138.177 211.172 137.696 211.172C137.183 211.172 136.812 211.347 136.593 211.653C136.419 211.893 136.342 212.188 136.32 212.45ZM142.162 215.792V210.331H143.44V211.402C143.648 210.768 144.27 210.299 145.275 210.211C145.395 210.2 145.625 210.2 145.799 210.2L145.767 211.38C145.603 211.369 145.483 211.369 145.352 211.369C144.194 211.369 143.451 211.806 143.451 213.335V215.792H142.162ZM148.215 213.597L148.04 210.757V208.147H149.318V210.757L149.143 213.597H148.215ZM148.018 215.792V214.307H149.482V215.792H148.018ZM159.143 215.924C157.45 215.924 156.03 215.104 155.986 213.335L157.395 213.182C157.417 214.274 158.138 214.831 159.165 214.831C160.104 214.831 160.825 214.482 160.825 213.641C160.825 212.745 159.853 212.734 158.749 212.483C157.417 212.166 156.205 211.675 156.205 210.222C156.205 208.627 157.668 208.016 158.99 208.016C160.584 208.016 161.786 208.638 161.972 210.397L160.584 210.637C160.541 209.578 159.94 209.097 158.99 209.097C158.214 209.097 157.581 209.447 157.581 210.146C157.581 210.845 158.411 211.074 159.416 211.26C160.945 211.544 162.212 211.937 162.212 213.564C162.212 215.29 160.781 215.924 159.143 215.924ZM165.792 215.924C164.94 215.924 164.285 215.65 163.815 215.17C163.312 214.657 163.083 213.936 163.083 213.051C163.083 212.21 163.323 211.489 163.815 210.965C164.295 210.462 164.951 210.2 165.781 210.2C166.644 210.2 167.376 210.528 167.834 211.107C168.271 211.653 168.49 212.483 168.457 213.422H164.394C164.416 214.438 164.874 214.951 165.781 214.951C166.578 214.951 166.993 214.613 167.113 213.947L168.369 214.045C168.085 215.301 167.19 215.924 165.792 215.924ZM164.405 212.45H167.135C167.113 212.144 167.015 211.828 166.829 211.598C166.589 211.303 166.261 211.172 165.781 211.172C165.268 211.172 164.896 211.347 164.678 211.653C164.503 211.893 164.427 212.188 164.405 212.45ZM169.799 215.792V210.331H171.088V211.151C171.372 210.495 171.951 210.2 172.726 210.2C173.436 210.2 173.895 210.375 174.255 210.757C174.692 211.205 174.725 211.86 174.725 212.494V215.792H173.414V212.592C173.414 212.09 173.392 211.751 173.108 211.478C172.868 211.238 172.606 211.216 172.278 211.216C171.809 211.216 171.088 211.478 171.088 212.8V215.792H169.799ZM178.348 215.924C176.918 215.924 175.88 214.842 175.88 213.062C175.88 211.336 176.863 210.2 178.327 210.2C179.037 210.2 179.594 210.473 179.965 210.998V208.147H181.254V215.792H179.965V215.017C179.648 215.618 179.069 215.924 178.348 215.924ZM177.289 213.062C177.289 214.318 177.584 214.973 178.643 214.973C179.048 214.973 179.364 214.831 179.583 214.58C179.867 214.252 179.998 213.75 179.998 213.073C179.998 211.981 179.703 211.161 178.665 211.161C178.163 211.161 177.824 211.314 177.617 211.609C177.376 211.926 177.289 212.417 177.289 213.062ZM190.107 215.847C188.906 215.847 188.25 215.443 188.25 214.329V211.369H187.136V210.331H188.25V208.813H189.517V210.331H191.047V211.369H189.517V214.209C189.517 214.635 189.758 214.744 190.271 214.744C190.489 214.744 190.752 214.711 191.014 214.646L191.036 215.749C190.773 215.814 190.402 215.847 190.107 215.847ZM195.018 215.924C193.27 215.924 192.233 214.842 192.233 213.062C192.233 211.402 193.281 210.2 195.018 210.2C196.733 210.2 197.803 211.413 197.803 213.062C197.803 214.777 196.7 215.924 195.018 215.924ZM193.62 213.062C193.62 213.783 193.74 214.296 194.024 214.602C194.242 214.853 194.57 214.973 195.018 214.973C195.488 214.973 195.815 214.842 196.034 214.58C196.307 214.263 196.416 213.761 196.416 213.062C196.416 212.363 196.296 211.86 196.034 211.544C195.804 211.282 195.477 211.151 195.018 211.151C194.57 211.151 194.242 211.271 194.013 211.522C193.74 211.828 193.62 212.341 193.62 213.062Z" fill="#4A5C63" style="fill:#4A5C63;fill:color(display-p3 0.2902 0.3608 0.3882);fill-opacity:1;"/>
<path d="M11.9748 227.792V222.331H13.1981V223.096C13.2746 222.899 13.3947 222.703 13.5585 222.561C13.7988 222.342 14.1047 222.2 14.5634 222.2C15.2843 222.2 15.743 222.593 15.9178 223.205C16.0161 222.943 16.1581 222.725 16.3656 222.55C16.6277 222.331 16.9445 222.2 17.425 222.2C18.4299 222.2 19.0197 222.812 19.0197 224.188V227.792H17.7746V224.527C17.7746 224.035 17.7636 223.664 17.5561 223.434C17.3923 223.26 17.1957 223.216 16.9881 223.216C16.7369 223.216 16.5403 223.303 16.3874 223.467C16.2017 223.697 16.1144 224.024 16.1144 224.625V227.792H14.8692V224.527C14.8692 224.024 14.8583 223.653 14.6508 223.424C14.4651 223.238 14.2685 223.216 14.061 223.216C13.8425 223.216 13.635 223.292 13.493 223.445C13.3073 223.664 13.22 224.002 13.22 224.625V227.792H11.9748ZM21.2931 230.032C21.0309 230.032 20.6814 229.977 20.4302 229.9L20.452 228.754C20.6487 228.808 20.878 228.874 21.1074 228.874C21.588 228.874 21.7518 228.579 22.0358 227.782L19.9278 222.331H21.3258L22.2105 224.975C22.3307 225.335 22.4836 225.826 22.6365 226.362C22.7785 225.859 22.9096 225.444 23.0843 224.92L23.9144 222.331H25.2688L23.1608 228.251C22.7239 229.518 22.2433 230.032 21.2931 230.032ZM26.433 227.792V222.331H27.7219V223.151C28.0058 222.495 28.5847 222.2 29.3602 222.2C30.0702 222.2 30.5289 222.375 30.8893 222.757C31.3262 223.205 31.359 223.86 31.359 224.494V227.792H30.0483V224.592C30.0483 224.09 30.0265 223.751 29.7425 223.478C29.5022 223.238 29.2401 223.216 28.9124 223.216C28.4427 223.216 27.7219 223.478 27.7219 224.8V227.792H26.433ZM35.3322 227.924C34.4803 227.924 33.8249 227.65 33.3553 227.17C32.8529 226.657 32.6235 225.936 32.6235 225.051C32.6235 224.21 32.8638 223.489 33.3553 222.965C33.8359 222.462 34.4912 222.2 35.3213 222.2C36.1842 222.2 36.916 222.528 37.3747 223.107C37.8116 223.653 38.03 224.483 37.9973 225.422H33.9342C33.956 226.438 34.4148 226.951 35.3213 226.951C36.1186 226.951 36.5337 226.613 36.6538 225.947L37.9099 226.045C37.6259 227.301 36.7303 227.924 35.3322 227.924ZM33.9451 224.45H36.6757C36.6538 224.144 36.5555 223.828 36.3698 223.598C36.1296 223.303 35.8019 223.172 35.3213 223.172C34.808 223.172 34.4366 223.347 34.2182 223.653C34.0434 223.893 33.9669 224.188 33.9451 224.45ZM39.9956 227.792L38.6522 222.331H39.9301L40.4653 225.215L40.7056 226.7H40.7383C40.8366 226.231 40.9677 225.521 41.0332 225.215L41.6121 222.703H42.8791L43.4361 225.215C43.5126 225.564 43.6218 226.176 43.7092 226.7H43.742C43.8512 226.045 43.8949 225.859 43.9932 225.215L44.5284 222.331H45.8063L44.4738 227.792H43.0429L42.5077 225.433C42.4422 225.138 42.333 224.527 42.2456 223.981H42.2128C42.1255 224.494 42.0381 225.062 41.9507 225.433L41.4155 227.792H39.9956ZM46.795 227.792V222.331H48.0838V223.151C48.3678 222.495 48.9467 222.2 49.7222 222.2C50.4321 222.2 50.8909 222.375 51.2513 222.757C51.6882 223.205 51.721 223.86 51.721 224.494V227.792H50.4103V224.592C50.4103 224.09 50.3884 223.751 50.1045 223.478C49.8642 223.238 49.602 223.216 49.2744 223.216C48.8047 223.216 48.0838 223.478 48.0838 224.8V227.792H46.795ZM54.9843 227.924C53.9794 227.924 53.0947 227.388 53.0947 226.285C53.0947 225.117 54.0668 224.789 55.0607 224.603L56.6881 224.297C56.6881 223.937 56.6881 223.675 56.5352 223.456C56.3823 223.249 56.1092 223.151 55.6614 223.151C54.9078 223.151 54.5583 223.413 54.5474 224.177L53.2804 224.013C53.3131 223.369 53.5534 222.91 53.9685 222.626C54.3726 222.342 54.9733 222.2 55.7379 222.2C57.1469 222.2 57.9442 222.812 57.9442 224.002V226.809C57.9442 227.17 58.0207 227.487 58.1299 227.749V227.792H56.8301C56.7864 227.585 56.7537 227.356 56.7537 227.017C56.4697 227.552 55.8799 227.924 54.9843 227.924ZM54.4163 226.274C54.4163 226.744 54.7877 226.973 55.2573 226.973C56.1857 226.973 56.6881 226.504 56.6881 225.695V225.182L55.2682 225.488C54.7658 225.608 54.4163 225.772 54.4163 226.274ZM59.3545 227.792V222.331H60.5778V223.096C60.6543 222.899 60.7744 222.703 60.9383 222.561C61.1786 222.342 61.4844 222.2 61.9431 222.2C62.664 222.2 63.1227 222.593 63.2975 223.205C63.3958 222.943 63.5378 222.725 63.7453 222.55C64.0074 222.331 64.3242 222.2 64.8048 222.2C65.8096 222.2 66.3994 222.812 66.3994 224.188V227.792H65.1543V224.527C65.1543 224.035 65.1433 223.664 64.9358 223.434C64.772 223.26 64.5754 223.216 64.3679 223.216C64.1167 223.216 63.9201 223.303 63.7671 223.467C63.5815 223.697 63.4941 224.024 63.4941 224.625V227.792H62.2489V224.527C62.2489 224.024 62.238 223.653 62.0305 223.424C61.8448 223.238 61.6482 223.216 61.4407 223.216C61.2222 223.216 61.0147 223.292 60.8727 223.445C60.6871 223.664 60.5997 224.002 60.5997 224.625V227.792H59.3545ZM70.179 227.924C69.3271 227.924 68.6718 227.65 68.2021 227.17C67.6997 226.657 67.4703 225.936 67.4703 225.051C67.4703 224.21 67.7106 223.489 68.2021 222.965C68.6827 222.462 69.338 222.2 70.1681 222.2C71.031 222.2 71.7628 222.528 72.2215 223.107C72.6584 223.653 72.8768 224.483 72.8441 225.422H68.781C68.8028 226.438 69.2616 226.951 70.1681 226.951C70.9654 226.951 71.3805 226.613 71.5006 225.947L72.7567 226.045C72.4727 227.301 71.5771 227.924 70.179 227.924ZM68.7919 224.45H71.5225C71.5006 224.144 71.4023 223.828 71.2167 223.598C70.9764 223.303 70.6487 223.172 70.1681 223.172C69.6548 223.172 69.2834 223.347 69.065 223.653C68.8902 223.893 68.8138 224.188 68.7919 224.45ZM74.9288 227.792V226.231H76.4688V227.792H74.9288ZM81.2293 227.924C80.3774 227.924 79.722 227.65 79.2524 227.17C78.75 226.657 78.5206 225.936 78.5206 225.051C78.5206 224.21 78.7609 223.489 79.2524 222.965C79.733 222.462 80.3883 222.2 81.2184 222.2C82.0813 222.2 82.8131 222.528 83.2718 223.107C83.7087 223.653 83.9271 224.483 83.8944 225.422H79.8313C79.8531 226.438 80.3119 226.951 81.2184 226.951C82.0157 226.951 82.4308 226.613 82.5509 225.947L83.807 226.045C83.523 227.301 82.6274 227.924 81.2293 227.924ZM79.8422 224.45H82.5728C82.5509 224.144 82.4526 223.828 82.2669 223.598C82.0267 223.303 81.699 223.172 81.2184 223.172C80.7051 223.172 80.3337 223.347 80.1153 223.653C79.9405 223.893 79.864 224.188 79.8422 224.45ZM87.9134 227.847C86.7119 227.847 86.0566 227.443 86.0566 226.329V223.369H84.9425V222.331H86.0566V220.813H87.3235V222.331H88.8527V223.369H87.3235V226.209C87.3235 226.635 87.5638 226.744 88.0772 226.744C88.2956 226.744 88.5578 226.711 88.8199 226.646L88.8417 227.749C88.5796 227.814 88.2083 227.847 87.9134 227.847ZM90.4202 227.792V220.147H91.709V223.14C92.0039 222.506 92.6046 222.2 93.3364 222.2C94.0464 222.2 94.516 222.364 94.8983 222.779C95.3352 223.238 95.3461 223.85 95.3461 224.494V227.792H94.0355V224.559C94.0355 224.057 94.0136 223.751 93.7406 223.489C93.4894 223.238 93.2272 223.216 92.9105 223.216C92.4408 223.216 91.7199 223.456 91.7199 224.756V227.792H90.4202Z" fill="#0080BC" style="fill:#0080BC;fill:color(display-p3 0.0000 0.5020 0.7373);fill-opacity:1;"/>
<defs>
<filter id="filter0_d_132_2651" x="39.4369" y="-0.00014019" width="273.512" height="81.8493" filterUnits="userSpaceOnUse" color-interpolation-filters="sRGB">
<feFlood flood-opacity="0" result="BackgroundImageFix"/>
<feColorMatrix in="SourceAlpha" type="matrix" values="0 0 0 0 0 0 0 0 0 0 0 0 0 0 0 0 0 0 127 0" result="hardAlpha"/>
<feOffset dy="10.9223"/>
<feGaussianBlur stdDeviation="7.28153"/>
<feComposite in2="hardAlpha" operator="out"/>
<feColorMatrix type="matrix" values="0 0 0 0 0.0543419 0 0 0 0 0.238372 0 0 0 0 0.408247 0 0 0 0.06 0"/>
<feBlend mode="normal" in2="BackgroundImageFix" result="effect1_dropShadow_132_2651"/>
<feBlend mode="normal" in="SourceGraphic" in2="effect1_dropShadow_132_2651" result="shape"/>
</filter>
<filter id="filter1_d_132_2651" x="144.565" y="133.159" width="168.385" height="69.1544" filterUnits="userSpaceOnUse" color-interpolation-filters="sRGB">
<feFlood flood-opacity="0" result="BackgroundImageFix"/>
<feColorMatrix in="SourceAlpha" type="matrix" values="0 0 0 0 0 0 0 0 0 0 0 0 0 0 0 0 0 0 127 0" result="hardAlpha"/>
<feOffset dy="10.9223"/>
<feGaussianBlur stdDeviation="7.28153"/>
<feComposite in2="hardAlpha" operator="out"/>
<feColorMatrix type="matrix" values="0 0 0 0 0.0543419 0 0 0 0 0.238372 0 0 0 0 0.408247 0 0 0 0.06 0"/>
<feBlend mode="normal" in2="BackgroundImageFix" result="effect1_dropShadow_132_2651"/>
<feBlend mode="normal" in="SourceGraphic" in2="effect1_dropShadow_132_2651" result="shape"/>
</filter>
</defs>
</svg>
